<svg xmlns="http://www.w3.org/2000/svg" width="375" viewBox="0 0 375 56.25" height="56.25" version="1.0"><defs><clipPath id="a"><path d="M 39.050781 11.820312 L 70.875 11.820312 L 70.875 43.644531 L 39.050781 43.644531 Z M 39.050781 11.820312"/></clipPath></defs><g fill="#D9D9D9"><g><g><path d="M 15.65625 -12.550781 L 15.65625 -29.199219 L 3.644531 -29.199219 L 3.644531 -25.390625 L 11.472656 -25.390625 L 11.472656 -12.550781 C 11.472656 -7.125 9.234375 -3.726562 1.78125 -3.726562 C 1.324219 -3.726562 0.828125 -3.726562 0.332031 -3.769531 L 0.332031 0.164062 C 0.746094 0.164062 1.199219 0.207031 1.574219 0.207031 C 11.804688 0.207031 15.65625 -4.265625 15.65625 -12.550781 Z M 15.65625 -12.550781" transform="translate(12.704 41.817)"/></g></g></g><g fill="#D9D9D9"><g><g><path d="M 3.5625 -28.992188 L 3.5625 0 L 7.746094 0 L 7.746094 -20.253906 L 21.746094 0 L 25.058594 0 L 25.058594 -28.992188 L 20.914062 -28.992188 L 20.914062 -8.574219 L 6.792969 -28.992188 Z M 3.5625 -28.992188" transform="translate(79.038 41.817)"/></g></g></g><g fill="#D9D9D9"><g><g><path d="M 7.164062 -7.332031 L 18.929688 -7.332031 L 21.703125 0 L 26.175781 0 L 14.539062 -29.363281 L 11.472656 -29.363281 L -0.164062 0 L 4.347656 0 Z M 17.394531 -11.265625 L 8.699219 -11.265625 L 13.046875 -22.695312 Z M 17.394531 -11.265625" transform="translate(111.796 41.817)"/></g></g></g><g fill="#D9D9D9"><g><g><path d="M 9.027344 -25.304688 L 9.027344 0 L 13.210938 0 L 13.210938 -25.304688 L 21.953125 -25.304688 L 21.953125 -29.28125 L 0.25 -29.28125 L 0.25 -25.304688 Z M 9.027344 -25.304688" transform="translate(142.194 41.817)"/></g></g></g><g fill="#D9D9D9"><g><g><path d="M 20.003906 -17.476562 L 7.746094 -17.476562 L 7.746094 -29.242188 L 3.5625 -29.242188 L 3.5625 0 L 7.746094 0 L 7.746094 -13.335938 L 20.003906 -13.335938 L 20.003906 0 L 24.230469 0 L 24.230469 -29.242188 L 20.003906 -29.242188 Z M 20.003906 -17.476562" transform="translate(168.574 41.817)"/></g></g></g><g fill="#D9D9D9"><g><g><path d="M 7.164062 -7.332031 L 18.929688 -7.332031 L 21.703125 0 L 26.175781 0 L 14.539062 -29.363281 L 11.472656 -29.363281 L -0.164062 0 L 4.347656 0 Z M 17.394531 -11.265625 L 8.699219 -11.265625 L 13.046875 -22.695312 Z M 17.394531 -11.265625" transform="translate(200.504 41.817)"/></g></g></g><g fill="#D9D9D9"><g><g><path d="M 3.5625 -28.992188 L 3.5625 0 L 7.746094 0 L 7.746094 -20.253906 L 21.746094 0 L 25.058594 0 L 25.058594 -28.992188 L 20.914062 -28.992188 L 20.914062 -8.574219 L 6.792969 -28.992188 Z M 3.5625 -28.992188" transform="translate(230.902 41.817)"/></g></g></g><g fill="#2A7A95"><g><g><path d="M 7.703125 0 L 7.703125 -28.992188 L 3.5625 -28.992188 L 3.5625 0 Z M 18.597656 -28.992188 L 8.492188 -15.53125 L 8.492188 -13.417969 L 19.550781 0 L 24.933594 0 L 12.714844 -14.578125 L 23.773438 -28.992188 Z M 18.597656 -28.992188" transform="translate(278.099 41.817)"/></g></g></g><g fill="#2A7A95"><g><g><path d="M 7.164062 -7.332031 L 18.929688 -7.332031 L 21.703125 0 L 26.175781 0 L 14.539062 -29.363281 L 11.472656 -29.363281 L -0.164062 0 L 4.347656 0 Z M 17.394531 -11.265625 L 8.699219 -11.265625 L 13.046875 -22.695312 Z M 17.394531 -11.265625" transform="translate(306.922 41.817)"/></g></g></g><g fill="#2A7A95"><g><g><path d="M 12.464844 -16.234375 L 4.308594 -29.53125 L -0.621094 -29.53125 L 10.355469 -11.804688 L 10.355469 0 L 14.578125 0 L 14.578125 -11.804688 L 25.679688 -29.53125 L 20.707031 -29.53125 Z M 12.464844 -16.234375" transform="translate(337.32 41.817)"/></g></g></g><g clip-path="url(#a)"><path fill="#D9D9D9" d="M 67.574219 27.945312 C 67.582031 27.789062 67.695312 27.609375 67.832031 27.539062 L 70.601562 26.148438 C 70.738281 26.078125 70.828125 25.902344 70.804688 25.75 L 70.167969 22.796875 C 70.125 22.648438 69.96875 22.519531 69.816406 22.507812 L 66.667969 22.304688 C 66.515625 22.296875 66.335938 22.175781 66.265625 22.039062 L 65.835938 21.25 C 65.761719 21.117188 65.761719 20.898438 65.839844 20.769531 L 67.429688 18.078125 C 67.507812 17.945312 67.488281 17.742188 67.386719 17.628906 L 65.246094 15.433594 C 65.132812 15.332031 64.929688 15.308594 64.796875 15.382812 L 62.058594 16.910156 C 61.925781 16.984375 61.710938 16.980469 61.578125 16.898438 L 60.839844 16.476562 C 60.703125 16.40625 60.589844 16.222656 60.585938 16.070312 L 60.472656 12.917969 C 60.464844 12.761719 60.34375 12.601562 60.195312 12.558594 L 57.230469 11.84375 C 57.078125 11.816406 56.898438 11.90625 56.824219 12.039062 L 55.351562 14.792969 C 55.28125 14.929688 55.15625 15.039062 55.082031 15.035156 L 55.011719 15.035156 C 54.582031 15.035156 54.019531 15.078125 54.019531 15.078125 C 53.867188 15.089844 53.671875 14.996094 53.585938 14.871094 L 51.785156 12.269531 C 51.699219 12.140625 51.507812 12.074219 51.359375 12.113281 L 48.523438 13.074219 C 48.382812 13.128906 48.277344 13.300781 48.289062 13.453125 L 48.53125 16.550781 C 48.542969 16.703125 48.449219 16.894531 48.320312 16.976562 L 47.417969 17.605469 C 47.296875 17.695312 47.082031 17.722656 46.941406 17.664062 L 44.023438 16.449219 C 43.882812 16.390625 43.683594 16.4375 43.582031 16.550781 L 41.761719 18.816406 C 41.671875 18.9375 41.675781 19.140625 41.765625 19.261719 L 43.628906 21.722656 C 43.71875 21.84375 43.742188 22.058594 43.679688 22.195312 L 43.171875 23.414062 C 43.121094 23.558594 42.953125 23.695312 42.804688 23.722656 L 39.707031 24.285156 C 39.558594 24.3125 39.414062 24.457031 39.390625 24.609375 C 39.390625 24.609375 39.089844 26.519531 39.089844 27.660156 L 39.089844 27.667969 C 39.089844 27.675781 39.207031 27.722656 39.347656 27.773438 L 42.238281 28.835938 C 42.382812 28.886719 42.515625 29.054688 42.539062 29.207031 L 42.808594 30.6875 C 42.84375 30.835938 42.777344 31.042969 42.667969 31.148438 L 40.378906 33.289062 C 40.265625 33.394531 40.226562 33.59375 40.289062 33.730469 L 41.539062 36.160156 C 41.613281 36.292969 41.800781 36.375 41.949219 36.339844 L 44.960938 35.660156 C 45.109375 35.625 45.316406 35.691406 45.414062 35.808594 L 46.527344 36.96875 C 46.636719 37.074219 46.695312 37.28125 46.660156 37.429688 L 45.890625 40.449219 C 45.855469 40.597656 45.929688 40.785156 46.058594 40.867188 L 48.410156 42.199219 C 48.546875 42.265625 48.746094 42.234375 48.851562 42.125 L 51.035156 39.902344 C 51.140625 39.792969 51.351562 39.738281 51.496094 39.777344 L 53.050781 40.125 C 53.199219 40.152344 53.359375 40.292969 53.410156 40.4375 L 54.382812 43.371094 C 54.429688 43.515625 54.59375 43.640625 54.746094 43.644531 C 54.746094 43.644531 54.828125 43.648438 55.011719 43.648438 C 55.945312 43.648438 57.480469 43.445312 57.480469 43.445312 C 57.628906 43.425781 57.78125 43.285156 57.8125 43.136719 L 58.457031 40.0625 C 58.488281 39.910156 58.632812 39.75 58.777344 39.699219 L 60.140625 39.179688 C 60.28125 39.121094 60.492188 39.152344 60.613281 39.246094 L 63.007812 41.183594 C 63.125 41.28125 63.324219 41.289062 63.453125 41.203125 L 65.699219 39.488281 C 65.816406 39.390625 65.867188 39.195312 65.8125 39.050781 L 64.691406 36.09375 C 64.636719 35.953125 64.671875 35.734375 64.765625 35.617188 L 65.507812 34.601562 C 65.59375 34.472656 65.785156 34.382812 65.9375 34.398438 L 69.003906 34.730469 C 69.152344 34.746094 69.328125 34.644531 69.386719 34.503906 L 70.390625 31.75 C 70.4375 31.601562 70.371094 31.410156 70.25 31.316406 L 67.707031 29.433594 C 67.582031 29.34375 67.496094 29.144531 67.511719 28.992188 Z M 54.96875 37.035156 C 49.84375 37.035156 45.691406 32.867188 45.691406 27.722656 C 45.691406 22.574219 49.84375 18.40625 54.96875 18.40625 C 60.09375 18.40625 64.246094 22.574219 64.246094 27.722656 C 64.246094 32.867188 60.09375 37.035156 54.96875 37.035156 Z M 54.96875 37.035156"/></g></svg>