<svg xmlns="http://www.w3.org/2000/svg" width="375" viewBox="0 0 375 56.25" height="56.25" version="1.0"><defs><clipPath id="a"><path d="M 34.601562 25 L 64 25 L 64 45.863281 L 34.601562 45.863281 Z M 34.601562 25"/></clipPath><clipPath id="b"><path d="M 37 14.039062 L 66.425781 14.039062 L 66.425781 34 L 37 34 Z M 37 14.039062"/></clipPath></defs><g fill="#A6A6A6"><g><g><path d="M 12.710938 -13.738281 L 12.710938 -8.132812 C 12.710938 -7.617188 12.667969 -7.148438 12.453125 -6.632812 C 12.28125 -6.164062 12.023438 -5.734375 11.597656 -5.222656 C 11.210938 -4.75 10.613281 -4.363281 9.84375 -4.109375 C 9.074219 -3.851562 8.214844 -3.765625 7.191406 -3.808594 L 2.183594 -3.808594 L 2.140625 0 C 5.304688 0 7.703125 -0.0429688 9.328125 -0.0429688 C 11.726562 -0.0429688 13.566406 -0.726562 14.808594 -2.226562 C 16.089844 -3.765625 16.734375 -5.734375 16.777344 -8.132812 L 16.777344 -13.738281 Z M 12.710938 -29.957031 L 12.710938 -17.84375 L 16.777344 -17.84375 L 16.777344 -29.957031 Z M 12.710938 -29.957031" transform="translate(9.333 44.569)"/></g></g></g><g fill="#A6A6A6"><g><g><path d="M 6.078125 0 L 6.078125 -25.164062 L 16.859375 -4.835938 L 16.859375 -12.625 L 7.617188 -30.085938 L 2.140625 -30.085938 L 2.140625 0 Z M 24.90625 0 L 24.90625 -30.085938 L 20.96875 -30.085938 L 20.96875 0 Z M 24.90625 0" transform="translate(73.377 44.569)"/></g></g></g><g fill="#A6A6A6"><g><g><path d="M 6.375 -11.082031 L 2.140625 0 L 6.417969 0 L 9.15625 -7.703125 L 22.722656 -7.703125 L 25.460938 0 L 29.699219 0 L 25.460938 -11.082031 Z M 13.609375 -30.042969 L 7.703125 -14.550781 L 11.683594 -14.550781 L 15.917969 -26.0625 L 20.15625 -14.550781 L 24.136719 -14.550781 L 18.230469 -30.042969 Z M 13.609375 -30.042969" transform="translate(102.56 44.569)"/></g></g></g><g fill="#A6A6A6"><g><g><path d="M 12.796875 -22.46875 L 12.796875 0 L 16.902344 0 L 16.902344 -22.46875 Z M 2.140625 -30.042969 L 2.140625 -26.617188 L 12.796875 -26.617188 L 12.796875 -26.574219 L 16.902344 -26.574219 L 16.902344 -26.617188 L 27.558594 -26.617188 L 27.558594 -30.042969 Z M 2.140625 -30.042969" transform="translate(136.577 44.569)"/></g></g></g><g fill="#A6A6A6"><g><g><path d="M 6.207031 -0.0859375 L 6.207031 -10.441406 L 20.96875 -10.441406 L 20.96875 -0.0859375 L 25.078125 -0.0859375 L 25.078125 -13.867188 L 2.140625 -13.867188 L 2.140625 -0.0859375 Z M 25.078125 -18.058594 L 25.078125 -29.957031 L 20.96875 -29.957031 L 20.96875 -18.058594 Z M 6.207031 -18.058594 L 6.207031 -29.957031 L 2.140625 -29.957031 L 2.140625 -18.058594 Z M 6.207031 -18.058594" transform="translate(168.455 44.569)"/></g></g></g><g fill="#A6A6A6"><g><g><path d="M 6.375 -11.082031 L 2.140625 0 L 6.417969 0 L 9.15625 -7.703125 L 22.722656 -7.703125 L 25.460938 0 L 29.699219 0 L 25.460938 -11.082031 Z M 13.609375 -30.042969 L 7.703125 -14.550781 L 11.683594 -14.550781 L 15.917969 -26.0625 L 20.15625 -14.550781 L 24.136719 -14.550781 L 18.230469 -30.042969 Z M 13.609375 -30.042969" transform="translate(197.809 44.569)"/></g></g></g><g fill="#A6A6A6"><g><g><path d="M 6.078125 0 L 6.078125 -25.164062 L 16.859375 -4.835938 L 16.859375 -12.625 L 7.617188 -30.085938 L 2.140625 -30.085938 L 2.140625 0 Z M 24.90625 0 L 24.90625 -30.085938 L 20.96875 -30.085938 L 20.96875 0 Z M 24.90625 0" transform="translate(231.826 44.569)"/></g></g></g><g fill="#0078EB"><g><g><path d="M 2.140625 -30.128906 L 2.140625 -14.421875 L 6.207031 -14.421875 C 7.617188 -13.136719 9.03125 -11.769531 10.484375 -10.269531 C 11.984375 -8.816406 13.90625 -6.847656 16.261719 -4.449219 C 18.660156 -2.054688 20.113281 -0.597656 20.625 -0.0429688 L 26.019531 -0.0429688 L 10.015625 -16.089844 L 24.949219 -30.128906 L 19.683594 -30.128906 L 6.207031 -17.417969 L 6.207031 -30.128906 Z M 2.140625 -10.742188 L 2.140625 -0.0429688 L 6.207031 -0.0429688 L 6.207031 -10.742188 Z M 2.140625 -10.742188" transform="translate(271.732 44.569)"/></g></g></g><g fill="#0078EB"><g><g><path d="M 6.375 -11.082031 L 2.140625 0 L 6.417969 0 L 9.15625 -7.703125 L 22.722656 -7.703125 L 25.460938 0 L 29.699219 0 L 25.460938 -11.082031 Z M 13.609375 -30.042969 L 7.703125 -14.550781 L 11.683594 -14.550781 L 15.917969 -26.0625 L 20.15625 -14.550781 L 24.136719 -14.550781 L 18.230469 -30.042969 Z M 13.609375 -30.042969" transform="translate(302.027 44.569)"/></g></g></g><g fill="#0078EB"><g><g><path d="M 2.140625 -30.042969 L 12.753906 -14.335938 L 16.859375 -14.335938 L 27.472656 -30.042969 L 23.109375 -30.042969 L 14.851562 -17.675781 L 6.503906 -30.042969 Z M 12.753906 -10.226562 L 12.753906 0 L 16.859375 0 L 16.859375 -10.226562 Z M 12.753906 -10.226562" transform="translate(336.045 44.569)"/></g></g></g><g clip-path="url(#a)"><path fill="#A6A6A6" d="M 50.582031 34.921875 C 51.082031 34.921875 51.488281 35.328125 51.488281 35.828125 C 51.488281 36.328125 51.082031 36.730469 50.582031 36.730469 C 50.082031 36.730469 49.675781 36.328125 49.675781 35.828125 C 49.675781 35.328125 50.082031 34.921875 50.582031 34.921875 Z M 47.636719 28.464844 C 47.136719 28.464844 46.730469 28.058594 46.730469 27.558594 C 46.730469 27.058594 47.136719 26.652344 47.636719 26.652344 C 48.136719 26.652344 48.539062 27.058594 48.539062 27.558594 C 48.539062 28.058594 48.136719 28.464844 47.636719 28.464844 Z M 61.351562 35.949219 C 61.355469 35.945312 61.359375 35.9375 61.363281 35.933594 C 61.398438 35.863281 61.4375 35.792969 61.472656 35.726562 C 61.484375 35.707031 61.496094 35.6875 61.503906 35.664062 C 61.535156 35.601562 61.570312 35.539062 61.601562 35.476562 C 61.699219 35.28125 61.792969 35.082031 61.878906 34.878906 L 53.976562 27.019531 L 49.121094 27.019531 C 48.898438 26.414062 48.320312 25.980469 47.636719 25.980469 C 46.761719 25.980469 46.054688 26.6875 46.054688 27.558594 C 46.054688 28.429688 46.761719 29.136719 47.636719 29.136719 C 48.296875 29.136719 48.867188 28.730469 49.101562 28.152344 L 53.507812 28.152344 L 59.03125 33.644531 C 57.605469 36.933594 54.328125 39.234375 50.515625 39.234375 C 46.105469 39.234375 42.417969 36.160156 41.46875 32.039062 L 45.820312 36.363281 L 49.097656 36.363281 C 49.316406 36.972656 49.898438 37.40625 50.582031 37.40625 C 51.453125 37.40625 52.160156 36.699219 52.160156 35.828125 C 52.160156 34.953125 51.453125 34.246094 50.582031 34.246094 C 49.917969 34.246094 49.351562 34.65625 49.117188 35.234375 L 46.289062 35.234375 L 37.910156 26.90625 L 36.636719 27.230469 L 34.757812 27.710938 C 34.65625 28.441406 34.601562 29.191406 34.601562 29.949219 C 34.601562 30.710938 34.65625 31.457031 34.757812 32.191406 L 38.546875 33.160156 C 38.832031 34.214844 39.25 35.214844 39.785156 36.140625 L 37.789062 39.507812 C 38.691406 40.707031 39.757812 41.773438 40.957031 42.675781 L 44.324219 40.679688 C 45.25 41.214844 46.25 41.632812 47.304688 41.917969 L 48.273438 45.707031 C 49.007812 45.808594 49.753906 45.863281 50.515625 45.863281 C 51.273438 45.863281 52.023438 45.808594 52.753906 45.707031 L 53.722656 41.917969 C 54.78125 41.632812 55.78125 41.214844 56.703125 40.679688 L 60.070312 42.675781 C 61.269531 41.773438 62.335938 40.707031 63.238281 39.507812 L 61.242188 36.140625 C 61.28125 36.078125 61.316406 36.011719 61.351562 35.949219"/></g><g clip-path="url(#b)"><path fill="#0078EB" d="M 50.445312 24.980469 C 49.945312 24.980469 49.542969 24.574219 49.542969 24.074219 C 49.542969 23.574219 49.945312 23.167969 50.445312 23.167969 C 50.945312 23.167969 51.351562 23.574219 51.351562 24.074219 C 51.351562 24.574219 50.945312 24.980469 50.445312 24.980469 Z M 53.394531 31.4375 C 53.894531 31.4375 54.300781 31.84375 54.300781 32.34375 C 54.300781 32.84375 53.894531 33.246094 53.394531 33.246094 C 52.894531 33.246094 52.488281 32.84375 52.488281 32.34375 C 52.488281 31.84375 52.894531 31.4375 53.394531 31.4375 Z M 66.269531 27.710938 L 62.480469 26.742188 C 62.199219 25.683594 61.777344 24.6875 61.242188 23.761719 L 63.238281 20.394531 C 62.335938 19.195312 61.269531 18.128906 60.070312 17.226562 L 56.703125 19.222656 C 55.78125 18.6875 54.78125 18.265625 53.722656 17.984375 L 52.753906 14.195312 C 52.023438 14.09375 51.273438 14.039062 50.515625 14.039062 C 49.753906 14.039062 49.007812 14.09375 48.273438 14.195312 L 47.304688 17.984375 C 46.25 18.265625 45.25 18.6875 44.324219 19.222656 L 40.957031 17.226562 C 39.757812 18.128906 38.691406 19.195312 37.789062 20.394531 L 39.785156 23.761719 C 39.75 23.824219 39.710938 23.886719 39.675781 23.953125 C 39.675781 23.957031 39.671875 23.964844 39.667969 23.96875 C 39.628906 24.039062 39.59375 24.109375 39.554688 24.175781 C 39.546875 24.195312 39.535156 24.214844 39.523438 24.234375 C 39.492188 24.296875 39.460938 24.363281 39.429688 24.425781 C 39.332031 24.621094 39.238281 24.820312 39.148438 25.023438 L 47.050781 32.882812 L 51.910156 32.882812 C 52.128906 33.488281 52.710938 33.921875 53.394531 33.921875 C 54.265625 33.921875 54.972656 33.214844 54.972656 32.34375 C 54.972656 31.46875 54.265625 30.761719 53.394531 30.761719 C 52.730469 30.761719 52.164062 31.171875 51.929688 31.75 L 47.519531 31.75 L 41.996094 26.257812 C 43.425781 22.96875 46.699219 20.667969 50.515625 20.667969 C 54.921875 20.667969 58.613281 23.742188 59.558594 27.863281 L 55.210938 23.535156 L 51.933594 23.535156 C 51.710938 22.929688 51.128906 22.496094 50.445312 22.496094 C 49.574219 22.496094 48.867188 23.203125 48.867188 24.074219 C 48.867188 24.949219 49.574219 25.652344 50.445312 25.652344 C 51.109375 25.652344 51.679688 25.246094 51.910156 24.667969 L 54.742188 24.667969 L 63.121094 32.996094 L 63.792969 32.824219 L 66.269531 32.191406 C 66.371094 31.457031 66.425781 30.710938 66.425781 29.949219 C 66.425781 29.191406 66.371094 28.441406 66.269531 27.710938"/></g></svg>