<svg xmlns="http://www.w3.org/2000/svg" width="375" viewBox="0 0 375 225" height="225" version="1.0"><defs><clipPath id="a"><path d="M 135.445312 30 L 239.695312 30 L 239.695312 118 L 135.445312 118 Z M 135.445312 30"/></clipPath><clipPath id="b"><path d="M 135.445312 38 L 185 38 L 185 117 L 135.445312 117 Z M 135.445312 38"/></clipPath><clipPath id="c"><path d="M 190 38 L 239.695312 38 L 239.695312 117 L 190 117 Z M 190 38"/></clipPath><clipPath id="d"><path d="M 232 48 L 275 48 L 275 91 L 232 91 Z M 232 48"/></clipPath><clipPath id="e"><path d="M 241.484375 43.800781 L 276.300781 62.980469 L 258.203125 95.828125 L 223.390625 76.644531 Z M 241.484375 43.800781"/></clipPath><clipPath id="f"><path d="M 241.484375 43.800781 L 276.300781 62.980469 L 258.203125 95.828125 L 223.390625 76.644531 Z M 241.484375 43.800781"/></clipPath><clipPath id="g"><path d="M 241.484375 43.800781 L 276.300781 62.980469 L 258.203125 95.828125 L 223.390625 76.644531 Z M 241.484375 43.800781"/></clipPath><clipPath id="h"><path d="M 235 48 L 249 48 L 249 55 L 235 55 Z M 235 48"/></clipPath><clipPath id="i"><path d="M 241.484375 43.800781 L 276.300781 62.980469 L 258.203125 95.828125 L 223.390625 76.644531 Z M 241.484375 43.800781"/></clipPath><clipPath id="j"><path d="M 241.484375 43.800781 L 276.300781 62.980469 L 258.203125 95.828125 L 223.390625 76.644531 Z M 241.484375 43.800781"/></clipPath><clipPath id="k"><path d="M 241.484375 43.800781 L 276.300781 62.980469 L 258.203125 95.828125 L 223.390625 76.644531 Z M 241.484375 43.800781"/></clipPath><clipPath id="l"><path d="M 251 84 L 265 84 L 265 92 L 251 92 Z M 251 84"/></clipPath><clipPath id="m"><path d="M 241.484375 43.800781 L 276.300781 62.980469 L 258.203125 95.828125 L 223.390625 76.644531 Z M 241.484375 43.800781"/></clipPath><clipPath id="n"><path d="M 241.484375 43.800781 L 276.300781 62.980469 L 258.203125 95.828125 L 223.390625 76.644531 Z M 241.484375 43.800781"/></clipPath><clipPath id="o"><path d="M 241.484375 43.800781 L 276.300781 62.980469 L 258.203125 95.828125 L 223.390625 76.644531 Z M 241.484375 43.800781"/></clipPath><clipPath id="p"><path d="M 224 48 L 268 48 L 268 92 L 224 92 Z M 224 48"/></clipPath><clipPath id="q"><path d="M 241.484375 43.800781 L 276.300781 62.980469 L 258.203125 95.828125 L 223.390625 76.644531 Z M 241.484375 43.800781"/></clipPath><clipPath id="r"><path d="M 241.484375 43.800781 L 276.300781 62.980469 L 258.203125 95.828125 L 223.390625 76.644531 Z M 241.484375 43.800781"/></clipPath><clipPath id="s"><path d="M 241.484375 43.800781 L 276.300781 62.980469 L 258.203125 95.828125 L 223.390625 76.644531 Z M 241.484375 43.800781"/></clipPath><clipPath id="t"><path d="M 243 67 L 249 67 L 249 73 L 243 73 Z M 243 67"/></clipPath><clipPath id="u"><path d="M 241.484375 43.800781 L 276.300781 62.980469 L 258.203125 95.828125 L 223.390625 76.644531 Z M 241.484375 43.800781"/></clipPath><clipPath id="v"><path d="M 241.484375 43.800781 L 276.300781 62.980469 L 258.203125 95.828125 L 223.390625 76.644531 Z M 241.484375 43.800781"/></clipPath><clipPath id="w"><path d="M 241.484375 43.800781 L 276.300781 62.980469 L 258.203125 95.828125 L 223.390625 76.644531 Z M 241.484375 43.800781"/></clipPath><clipPath id="x"><path d="M 239 54 L 244 54 L 244 60 L 239 60 Z M 239 54"/></clipPath><clipPath id="y"><path d="M 241.484375 43.800781 L 276.300781 62.980469 L 258.203125 95.828125 L 223.390625 76.644531 Z M 241.484375 43.800781"/></clipPath><clipPath id="z"><path d="M 241.484375 43.800781 L 276.300781 62.980469 L 258.203125 95.828125 L 223.390625 76.644531 Z M 241.484375 43.800781"/></clipPath><clipPath id="A"><path d="M 241.484375 43.800781 L 276.300781 62.980469 L 258.203125 95.828125 L 223.390625 76.644531 Z M 241.484375 43.800781"/></clipPath><clipPath id="B"><path d="M 256 64 L 262 64 L 262 70 L 256 70 Z M 256 64"/></clipPath><clipPath id="C"><path d="M 241.484375 43.800781 L 276.300781 62.980469 L 258.203125 95.828125 L 223.390625 76.644531 Z M 241.484375 43.800781"/></clipPath><clipPath id="D"><path d="M 241.484375 43.800781 L 276.300781 62.980469 L 258.203125 95.828125 L 223.390625 76.644531 Z M 241.484375 43.800781"/></clipPath><clipPath id="E"><path d="M 241.484375 43.800781 L 276.300781 62.980469 L 258.203125 95.828125 L 223.390625 76.644531 Z M 241.484375 43.800781"/></clipPath><clipPath id="F"><path d="M 229 71 L 235 71 L 235 77 L 229 77 Z M 229 71"/></clipPath><clipPath id="G"><path d="M 241.484375 43.800781 L 276.300781 62.980469 L 258.203125 95.828125 L 223.390625 76.644531 Z M 241.484375 43.800781"/></clipPath><clipPath id="H"><path d="M 241.484375 43.800781 L 276.300781 62.980469 L 258.203125 95.828125 L 223.390625 76.644531 Z M 241.484375 43.800781"/></clipPath><clipPath id="I"><path d="M 241.484375 43.800781 L 276.300781 62.980469 L 258.203125 95.828125 L 223.390625 76.644531 Z M 241.484375 43.800781"/></clipPath><clipPath id="J"><path d="M 247 81 L 253 81 L 253 87 L 247 87 Z M 247 81"/></clipPath><clipPath id="K"><path d="M 241.484375 43.800781 L 276.300781 62.980469 L 258.203125 95.828125 L 223.390625 76.644531 Z M 241.484375 43.800781"/></clipPath><clipPath id="L"><path d="M 241.484375 43.800781 L 276.300781 62.980469 L 258.203125 95.828125 L 223.390625 76.644531 Z M 241.484375 43.800781"/></clipPath><clipPath id="M"><path d="M 241.484375 43.800781 L 276.300781 62.980469 L 258.203125 95.828125 L 223.390625 76.644531 Z M 241.484375 43.800781"/></clipPath><clipPath id="N"><path d="M 262 75 L 266 75 L 266 80 L 262 80 Z M 262 75"/></clipPath><clipPath id="O"><path d="M 241.484375 43.800781 L 276.300781 62.980469 L 258.203125 95.828125 L 223.390625 76.644531 Z M 241.484375 43.800781"/></clipPath><clipPath id="P"><path d="M 241.484375 43.800781 L 276.300781 62.980469 L 258.203125 95.828125 L 223.390625 76.644531 Z M 241.484375 43.800781"/></clipPath><clipPath id="Q"><path d="M 241.484375 43.800781 L 276.300781 62.980469 L 258.203125 95.828125 L 223.390625 76.644531 Z M 241.484375 43.800781"/></clipPath><clipPath id="R"><path d="M 125.585938 21 L 239.585938 21 L 239.585938 118 L 125.585938 118 Z M 125.585938 21"/></clipPath><clipPath id="S"><path d="M 125.585938 30 L 180 30 L 180 116 L 125.585938 116 Z M 125.585938 30"/></clipPath><clipPath id="T"><path d="M 185 30 L 239.585938 30 L 239.585938 116 L 185 116 Z M 185 30"/></clipPath></defs><g clip-path="url(#a)"><path fill="#C8C8ED" d="M 231.007812 30.046875 L 187.570312 47.171875 L 144.132812 30.046875 C 144.132812 30.046875 135.445312 32.886719 135.445312 42.375 L 180.515625 116.46875 C 188.660156 119.609375 194.332031 116.285156 194.332031 116.285156 L 239.695312 42.375 C 239.695312 32.886719 231.007812 30.046875 231.007812 30.046875 Z M 231.007812 30.046875"/></g><g clip-path="url(#b)"><path fill="#FF5478" d="M 178.847656 53.714844 L 141.15625 39.03125 C 141.15625 39.03125 135.445312 36.144531 135.445312 42.480469 C 135.445312 56.882812 135.445312 84.367188 135.445312 88.828125 C 135.445312 94.917969 141.222656 97.1875 141.222656 97.1875 L 178.816406 115.859375 C 178.816406 115.859375 184.671875 119.035156 184.671875 111.042969 C 184.671875 105.105469 184.671875 71.058594 184.671875 62.757812 C 184.675781 55.453125 178.847656 53.714844 178.847656 53.714844 Z M 178.847656 53.714844"/></g><g clip-path="url(#c)"><path fill="#15AAEA" d="M 196.292969 53.5 L 233.988281 38.816406 C 233.988281 38.816406 239.699219 35.929688 239.699219 42.265625 C 239.699219 56.664062 239.699219 84.148438 239.699219 88.609375 C 239.699219 94.699219 233.921875 96.96875 233.921875 96.96875 L 196.332031 115.640625 C 196.332031 115.640625 190.472656 118.816406 190.472656 110.828125 C 190.472656 104.890625 190.472656 70.84375 190.472656 62.539062 C 190.46875 55.238281 196.292969 53.5 196.292969 53.5 Z M 196.292969 53.5"/></g><path fill="#CB6CE6" d="M 230.921875 30.011719 C 218.792969 24.769531 197.679688 16.085938 193.324219 14.417969 C 191.253906 13.621094 189.292969 13.382812 187.570312 13.390625 C 185.847656 13.378906 183.890625 13.617188 181.816406 14.414062 C 177.464844 16.082031 156.351562 24.765625 144.222656 30.011719 C 138.761719 32.371094 144.3125 34.042969 144.3125 34.042969 L 181.738281 48.621094 C 181.738281 48.621094 184.03125 49.769531 187.570312 49.738281 L 187.570312 49.742188 C 191.113281 49.777344 193.40625 48.625 193.40625 48.625 L 230.832031 34.046875 C 230.828125 34.042969 236.378906 32.371094 230.921875 30.011719 Z M 230.921875 30.011719"/><path fill="#FFF" d="M 196.257812 30.796875 C 196.257812 31.082031 196.203125 31.367188 196.09375 31.644531 C 195.980469 31.925781 195.816406 32.199219 195.597656 32.460938 C 195.378906 32.726562 195.113281 32.976562 194.796875 33.214844 C 194.476562 33.453125 194.117188 33.671875 193.714844 33.875 C 193.3125 34.074219 192.871094 34.257812 192.398438 34.414062 C 191.925781 34.574219 191.421875 34.707031 190.894531 34.816406 C 190.371094 34.925781 189.824219 35.007812 189.265625 35.066406 C 188.707031 35.121094 188.140625 35.148438 187.570312 35.148438 C 187 35.148438 186.4375 35.121094 185.875 35.066406 C 185.316406 35.007812 184.773438 34.925781 184.246094 34.816406 C 183.71875 34.707031 183.21875 34.574219 182.746094 34.414062 C 182.269531 34.257812 181.832031 34.074219 181.429688 33.875 C 181.023438 33.671875 180.664062 33.453125 180.347656 33.214844 C 180.03125 32.976562 179.765625 32.726562 179.546875 32.460938 C 179.328125 32.199219 179.164062 31.925781 179.050781 31.644531 C 178.941406 31.367188 178.882812 31.082031 178.882812 30.796875 C 178.882812 30.511719 178.941406 30.226562 179.050781 29.949219 C 179.164062 29.667969 179.328125 29.394531 179.546875 29.132812 C 179.765625 28.867188 180.03125 28.617188 180.347656 28.378906 C 180.664062 28.140625 181.023438 27.921875 181.429688 27.71875 C 181.832031 27.519531 182.269531 27.335938 182.746094 27.179688 C 183.21875 27.019531 183.71875 26.886719 184.246094 26.777344 C 184.773438 26.667969 185.316406 26.585938 185.875 26.53125 C 186.4375 26.472656 187 26.445312 187.570312 26.445312 C 188.140625 26.445312 188.707031 26.472656 189.265625 26.53125 C 189.824219 26.585938 190.371094 26.667969 190.894531 26.777344 C 191.421875 26.886719 191.925781 27.019531 192.398438 27.179688 C 192.871094 27.335938 193.3125 27.519531 193.714844 27.71875 C 194.117188 27.921875 194.476562 28.140625 194.796875 28.378906 C 195.113281 28.617188 195.378906 28.867188 195.597656 29.132812 C 195.816406 29.394531 195.980469 29.667969 196.09375 29.949219 C 196.203125 30.226562 196.257812 30.511719 196.257812 30.796875 Z M 196.257812 30.796875"/><path fill="#FFF" d="M 142.6875 81.085938 C 144.445312 78.097656 148.046875 77.835938 150.707031 80.5 C 153.378906 83.160156 154.109375 87.746094 152.339844 90.738281 C 150.578125 93.726562 146.980469 93.988281 144.316406 91.324219 C 141.648438 88.65625 140.917969 84.078125 142.6875 81.085938 Z M 142.6875 81.085938"/><path fill="#FFF" d="M 155.238281 70.210938 C 156.996094 67.222656 160.597656 66.960938 163.257812 69.625 C 165.929688 72.285156 166.660156 76.871094 164.890625 79.863281 C 163.128906 82.851562 159.53125 83.113281 156.867188 80.449219 C 154.195312 77.78125 153.46875 73.203125 155.238281 70.210938 Z M 155.238281 70.210938"/><path fill="#FFF" d="M 168.265625 59.328125 C 170.027344 56.339844 173.625 56.082031 176.285156 58.742188 C 178.957031 61.40625 179.6875 65.988281 177.917969 68.984375 C 176.15625 71.972656 172.558594 72.230469 169.894531 69.570312 C 167.226562 66.898438 166.5 62.324219 168.265625 59.328125 Z M 168.265625 59.328125"/><path fill="#FFF" d="M 231.132812 76.855469 C 229.371094 73.867188 225.773438 73.605469 223.113281 76.269531 C 220.441406 78.933594 219.710938 83.515625 221.480469 86.507812 C 223.242188 89.496094 226.839844 89.757812 229.503906 87.09375 C 232.171875 84.425781 232.898438 79.847656 231.132812 76.855469 Z M 231.132812 76.855469"/><path fill="#FFF" d="M 215.445312 62.839844 C 213.6875 59.851562 210.085938 59.589844 207.425781 62.253906 C 204.753906 64.917969 204.023438 69.5 205.792969 72.492188 C 207.554688 75.480469 211.152344 75.742188 213.816406 73.078125 C 216.488281 70.410156 217.214844 65.832031 215.445312 62.839844 Z M 215.445312 62.839844"/><g clip-path="url(#d)"><g clip-path="url(#e)"><g clip-path="url(#f)"><g clip-path="url(#g)"><path fill="#E94252" d="M 256.816406 90.453125 L 234.144531 77.964844 C 232.414062 77.007812 231.789062 74.796875 232.753906 73.042969 L 245.386719 50.109375 C 246.351562 48.359375 248.558594 47.707031 250.289062 48.660156 L 272.960938 61.152344 C 274.691406 62.105469 275.320312 64.320312 274.355469 66.070312 L 261.71875 89.003906 C 260.753906 90.757812 258.550781 91.410156 256.816406 90.453125 Z M 256.816406 90.453125"/></g></g></g></g><g clip-path="url(#h)"><g clip-path="url(#i)"><g clip-path="url(#j)"><g clip-path="url(#k)"><path fill="#E94252" d="M 235.996094 54.726562 L 237.554688 51.898438 C 237.554688 51.898438 238.851562 49.089844 240.316406 48.695312 C 241.785156 48.304688 248.714844 48.222656 248.714844 48.222656 L 244.722656 54.429688 Z M 235.996094 54.726562"/></g></g></g></g><g clip-path="url(#l)"><g clip-path="url(#m)"><g clip-path="url(#n)"><g clip-path="url(#o)"><path fill="#E94252" d="M 264.027344 84.78125 L 262.46875 87.613281 C 262.46875 87.613281 261.171875 90.417969 259.707031 90.8125 C 258.238281 91.207031 251.308594 91.285156 251.308594 91.285156 L 255.300781 85.082031 Z M 264.027344 84.78125"/></g></g></g></g><g clip-path="url(#p)"><g clip-path="url(#q)"><g clip-path="url(#r)"><g clip-path="url(#s)"><path fill="#EC635B" d="M 249.214844 90.882812 L 226.542969 78.390625 C 224.808594 77.4375 224.183594 75.222656 225.148438 73.472656 L 237.785156 50.535156 C 238.75 48.785156 240.957031 48.132812 242.6875 49.085938 L 265.355469 61.578125 C 267.089844 62.53125 267.714844 64.746094 266.75 66.496094 L 254.117188 89.429688 C 253.152344 91.183594 250.945312 91.835938 249.214844 90.882812 Z M 249.214844 90.882812"/></g></g></g></g><g clip-path="url(#t)"><g clip-path="url(#u)"><g clip-path="url(#v)"><g clip-path="url(#w)"><path fill="#FFF" d="M 248.023438 71.128906 C 247.871094 71.40625 247.671875 71.644531 247.425781 71.84375 C 247.175781 72.042969 246.902344 72.1875 246.597656 72.277344 C 246.296875 72.367188 245.988281 72.394531 245.675781 72.359375 C 245.363281 72.328125 245.070312 72.234375 244.792969 72.082031 C 244.519531 71.929688 244.28125 71.734375 244.085938 71.484375 C 243.890625 71.238281 243.75 70.964844 243.664062 70.660156 C 243.578125 70.355469 243.554688 70.046875 243.589844 69.730469 C 243.628906 69.417969 243.722656 69.121094 243.875 68.839844 C 244.027344 68.5625 244.230469 68.324219 244.476562 68.125 C 244.722656 67.925781 244.996094 67.78125 245.300781 67.691406 C 245.605469 67.601562 245.910156 67.574219 246.222656 67.609375 C 246.539062 67.640625 246.832031 67.734375 247.105469 67.886719 C 247.382812 68.039062 247.617188 68.234375 247.8125 68.484375 C 248.007812 68.730469 248.148438 69.003906 248.234375 69.308594 C 248.320312 69.613281 248.347656 69.921875 248.308594 70.238281 C 248.273438 70.550781 248.179688 70.847656 248.023438 71.128906 Z M 248.023438 71.128906"/></g></g></g></g><g clip-path="url(#x)"><g clip-path="url(#y)"><g clip-path="url(#z)"><g clip-path="url(#A)"><path fill="#FFF" d="M 243.585938 58.25 C 243.433594 58.527344 243.234375 58.765625 242.988281 58.964844 C 242.738281 59.164062 242.464844 59.308594 242.160156 59.398438 C 241.859375 59.488281 241.550781 59.515625 241.238281 59.484375 C 240.925781 59.449219 240.628906 59.355469 240.355469 59.207031 C 240.082031 59.054688 239.84375 58.855469 239.648438 58.609375 C 239.453125 58.359375 239.3125 58.085938 239.226562 57.78125 C 239.140625 57.476562 239.117188 57.167969 239.152344 56.851562 C 239.1875 56.539062 239.285156 56.242188 239.4375 55.964844 C 239.589844 55.683594 239.789062 55.445312 240.039062 55.246094 C 240.285156 55.046875 240.558594 54.902344 240.863281 54.8125 C 241.164062 54.722656 241.472656 54.695312 241.785156 54.730469 C 242.097656 54.761719 242.394531 54.855469 242.667969 55.007812 C 242.945312 55.160156 243.179688 55.359375 243.375 55.605469 C 243.570312 55.851562 243.710938 56.125 243.796875 56.429688 C 243.882812 56.734375 243.90625 57.042969 243.871094 57.359375 C 243.835938 57.675781 243.742188 57.972656 243.585938 58.25 Z M 243.585938 58.25"/></g></g></g></g><g clip-path="url(#B)"><g clip-path="url(#C)"><g clip-path="url(#D)"><g clip-path="url(#E)"><path fill="#FFF" d="M 261.25 67.980469 C 261.097656 68.257812 260.894531 68.496094 260.648438 68.695312 C 260.402344 68.894531 260.125 69.039062 259.824219 69.128906 C 259.519531 69.21875 259.210938 69.246094 258.898438 69.214844 C 258.585938 69.179688 258.292969 69.089844 258.019531 68.9375 C 257.742188 68.785156 257.507812 68.585938 257.3125 68.339844 C 257.117188 68.09375 256.976562 67.816406 256.890625 67.511719 C 256.804688 67.210938 256.777344 66.898438 256.816406 66.585938 C 256.851562 66.269531 256.945312 65.972656 257.097656 65.695312 C 257.253906 65.417969 257.453125 65.175781 257.699219 64.976562 C 257.945312 64.777344 258.222656 64.636719 258.523438 64.546875 C 258.828125 64.457031 259.136719 64.425781 259.449219 64.460938 C 259.761719 64.496094 260.054688 64.585938 260.332031 64.738281 C 260.605469 64.890625 260.839844 65.089844 261.035156 65.335938 C 261.230469 65.582031 261.371094 65.859375 261.460938 66.160156 C 261.546875 66.464844 261.570312 66.777344 261.535156 67.089844 C 261.496094 67.40625 261.402344 67.703125 261.25 67.980469 Z M 261.25 67.980469"/></g></g></g></g><g clip-path="url(#F)"><g clip-path="url(#G)"><g clip-path="url(#H)"><g clip-path="url(#I)"><path fill="#FFF" d="M 234.230469 75.273438 C 234.074219 75.550781 233.875 75.789062 233.628906 75.988281 C 233.382812 76.1875 233.105469 76.332031 232.804688 76.421875 C 232.5 76.511719 232.191406 76.539062 231.878906 76.507812 C 231.566406 76.472656 231.273438 76.378906 230.996094 76.230469 C 230.722656 76.078125 230.488281 75.878906 230.292969 75.632812 C 230.097656 75.386719 229.957031 75.109375 229.871094 74.804688 C 229.78125 74.5 229.757812 74.191406 229.792969 73.875 C 229.832031 73.5625 229.925781 73.265625 230.078125 72.988281 C 230.234375 72.707031 230.433594 72.46875 230.679688 72.269531 C 230.925781 72.070312 231.203125 71.925781 231.503906 71.835938 C 231.808594 71.746094 232.117188 71.71875 232.429688 71.753906 C 232.742188 71.785156 233.035156 71.878906 233.308594 72.03125 C 233.585938 72.183594 233.820312 72.382812 234.015625 72.628906 C 234.210938 72.875 234.351562 73.148438 234.4375 73.453125 C 234.523438 73.757812 234.550781 74.066406 234.511719 74.382812 C 234.476562 74.699219 234.382812 74.996094 234.230469 75.273438 Z M 234.230469 75.273438"/></g></g></g></g><g clip-path="url(#J)"><g clip-path="url(#K)"><g clip-path="url(#L)"><g clip-path="url(#M)"><path fill="#FFF" d="M 251.890625 85.003906 C 251.738281 85.28125 251.539062 85.519531 251.289062 85.71875 C 251.042969 85.917969 250.769531 86.0625 250.464844 86.152344 C 250.164062 86.242188 249.855469 86.269531 249.542969 86.238281 C 249.230469 86.203125 248.933594 86.113281 248.660156 85.960938 C 248.382812 85.808594 248.148438 85.609375 247.953125 85.363281 C 247.757812 85.117188 247.617188 84.839844 247.53125 84.535156 C 247.445312 84.234375 247.421875 83.921875 247.457031 83.609375 C 247.492188 83.292969 247.589844 82.996094 247.742188 82.71875 C 247.894531 82.441406 248.09375 82.199219 248.34375 82 C 248.589844 81.800781 248.863281 81.660156 249.167969 81.570312 C 249.46875 81.480469 249.777344 81.449219 250.089844 81.484375 C 250.402344 81.519531 250.699219 81.609375 250.972656 81.761719 C 251.246094 81.914062 251.484375 82.113281 251.679688 82.359375 C 251.875 82.605469 252.015625 82.882812 252.101562 83.183594 C 252.1875 83.488281 252.210938 83.800781 252.175781 84.113281 C 252.140625 84.429688 252.042969 84.726562 251.890625 85.003906 Z M 251.890625 85.003906"/></g></g></g></g><g clip-path="url(#N)"><g clip-path="url(#O)"><g clip-path="url(#P)"><g clip-path="url(#Q)"><path fill="#FFF" d="M 265.242188 77.878906 C 265.089844 78.15625 264.914062 78.40625 264.714844 78.632812 C 264.515625 78.859375 264.308594 79.042969 264.097656 79.179688 C 263.882812 79.320312 263.679688 79.40625 263.484375 79.4375 C 263.289062 79.46875 263.117188 79.441406 262.96875 79.363281 C 262.820312 79.28125 262.707031 79.148438 262.628906 78.964844 C 262.550781 78.785156 262.515625 78.566406 262.519531 78.3125 C 262.523438 78.058594 262.566406 77.785156 262.652344 77.496094 C 262.738281 77.210938 262.855469 76.925781 263.011719 76.648438 C 263.164062 76.371094 263.339844 76.117188 263.539062 75.890625 C 263.734375 75.664062 263.941406 75.484375 264.15625 75.34375 C 264.367188 75.203125 264.570312 75.121094 264.765625 75.089844 C 264.960938 75.058594 265.132812 75.082031 265.28125 75.164062 C 265.429688 75.246094 265.542969 75.378906 265.621094 75.558594 C 265.699219 75.742188 265.734375 75.957031 265.730469 76.214844 C 265.726562 76.46875 265.683594 76.738281 265.597656 77.027344 C 265.515625 77.316406 265.394531 77.597656 265.242188 77.878906 Z M 265.242188 77.878906"/></g></g></g></g><g fill="#E94252"><g><g><path d="M 15.96875 -19.550781 L 15.96875 -6.617188 L 6.355469 -19.550781 L 1.921875 -19.550781 L 1.921875 0 L 6.222656 0 L 6.222656 -12.96875 L 15.804688 0 L 20.238281 0 L 20.238281 -19.550781 Z M 15.96875 -19.550781" transform="translate(76.32 206.03)"/></g></g></g><g fill="#E94252"><g><g><path d="M 7.753906 0.261719 C 11.699219 0.261719 13.882812 -1.792969 13.882812 -4.984375 L 13.882812 -13.035156 L 9.742188 -13.035156 L 9.742188 -5.539062 C 9.742188 -4.300781 8.894531 -3.421875 7.753906 -3.421875 C 6.648438 -3.421875 5.800781 -4.300781 5.800781 -5.539062 L 5.800781 -13.035156 L 1.628906 -13.035156 L 1.628906 -4.984375 C 1.628906 -1.792969 3.8125 0.261719 7.753906 0.261719 Z M 7.753906 0.261719" transform="translate(97.984 206.03)"/></g></g></g><g fill="#E94252"><g><g><path d="M 17.46875 -13.296875 C 15.609375 -13.296875 14.175781 -12.449219 13.359375 -11.015625 C 12.613281 -12.382812 11.308594 -13.296875 9.644531 -13.296875 C 8.148438 -13.296875 6.941406 -12.578125 6.09375 -11.4375 L 6.09375 -13.035156 L 1.921875 -13.035156 L 1.921875 0 L 6.09375 0 L 6.09375 -7.558594 C 6.09375 -8.503906 6.679688 -9.613281 7.953125 -9.613281 C 9.09375 -9.613281 9.839844 -8.699219 9.839844 -7.558594 L 9.839844 0 L 14.011719 0 L 14.011719 -7.558594 C 14.011719 -8.503906 14.597656 -9.613281 15.871094 -9.613281 C 17.011719 -9.613281 17.792969 -8.699219 17.792969 -7.558594 L 17.792969 0 L 21.929688 0 L 21.929688 -8.246094 C 21.929688 -11.273438 20.335938 -13.296875 17.46875 -13.296875 Z M 17.46875 -13.296875" transform="translate(113.002 206.03)"/></g></g></g><g fill="#E94252"><g><g><path d="M 15.1875 -6.550781 C 15.1875 -10.625 12.382812 -13.328125 8.179688 -13.328125 C 3.976562 -13.328125 1.011719 -10.589844 1.011719 -6.515625 C 1.011719 -2.445312 3.941406 0.261719 8.308594 0.261719 C 11.925781 0.261719 14.339844 -1.660156 14.992188 -4.496094 L 10.980469 -4.496094 C 10.625 -3.453125 9.679688 -2.835938 8.246094 -2.835938 C 6.355469 -2.835938 5.375 -3.976562 5.214844 -5.832031 L 15.1875 -5.832031 Z M 8.246094 -10.132812 C 9.644531 -10.132812 10.460938 -9.484375 10.882812 -8.34375 L 5.476562 -8.34375 C 5.898438 -9.449219 6.777344 -10.132812 8.246094 -10.132812 Z M 8.246094 -10.132812" transform="translate(136.067 206.03)"/></g></g></g><g fill="#E94252"><g><g><path d="M 9.742188 -13.296875 C 8.210938 -13.296875 6.941406 -12.511719 6.09375 -11.242188 L 6.09375 -13.035156 L 1.921875 -13.035156 L 1.921875 0 L 6.09375 0 L 6.09375 -6.222656 C 6.09375 -8.375 7.558594 -9.613281 9.613281 -9.613281 C 10.101562 -9.613281 10.527344 -9.546875 10.820312 -9.484375 L 10.820312 -13.164062 C 10.527344 -13.261719 10.132812 -13.296875 9.742188 -13.296875 Z M 9.742188 -13.296875" transform="translate(151.704 206.03)"/></g></g></g><g fill="#E94252"><g><g><path d="M 4.074219 -15.21875 C 5.3125 -15.21875 6.355469 -16.261719 6.355469 -17.5 C 6.355469 -18.769531 5.3125 -19.78125 4.074219 -19.78125 C 2.835938 -19.78125 1.792969 -18.769531 1.792969 -17.5 C 1.792969 -16.261719 2.835938 -15.21875 4.074219 -15.21875 Z M 1.988281 0 L 6.125 0 L 6.125 -13.035156 L 1.988281 -13.035156 Z M 1.988281 0" transform="translate(161.934 206.03)"/></g></g></g><g fill="#E94252"><g><g><path d="M 8.277344 0.261719 C 12.1875 0.261719 14.859375 -2.019531 15.414062 -5.277344 L 11.113281 -5.277344 C 10.6875 -4.171875 9.613281 -3.453125 8.277344 -3.421875 C 6.484375 -3.453125 5.179688 -4.757812 5.179688 -6.515625 C 5.179688 -8.277344 6.484375 -9.582031 8.277344 -9.613281 C 9.613281 -9.582031 10.6875 -8.863281 11.113281 -7.753906 L 15.414062 -7.753906 C 14.859375 -11.015625 12.1875 -13.296875 8.277344 -13.296875 C 3.910156 -13.296875 1.011719 -10.429688 1.011719 -6.515625 C 1.011719 -2.605469 3.910156 0.261719 8.277344 0.261719 Z M 8.277344 0.261719" transform="translate(169.557 206.03)"/></g></g></g><g fill="#E94252"><g><g><path d="M 16.457031 -3.390625 C 15.902344 -3.390625 15.316406 -3.585938 15.316406 -4.660156 L 15.316406 -13.035156 L 11.175781 -13.035156 L 11.175781 -11.894531 C 10.199219 -12.773438 8.960938 -13.296875 7.460938 -13.296875 C 3.84375 -13.296875 1.011719 -10.296875 1.011719 -6.515625 C 1.011719 -2.738281 3.84375 0.261719 7.460938 0.261719 C 9.351562 0.261719 10.882812 -0.585938 11.925781 -1.957031 C 12.742188 -0.621094 14.175781 0.261719 15.933594 0.261719 C 16.359375 0.261719 16.75 0.128906 17.042969 0 L 17.042969 -3.390625 Z M 8.277344 -3.421875 C 6.550781 -3.421875 5.179688 -4.789062 5.179688 -6.515625 C 5.179688 -8.246094 6.550781 -9.613281 8.277344 -9.613281 C 9.972656 -9.613281 11.371094 -8.246094 11.371094 -6.515625 C 11.371094 -4.789062 9.972656 -3.421875 8.277344 -3.421875 Z M 8.277344 -3.421875" transform="translate(185.194 206.03)"/></g></g></g><g fill="#E94252"><g><g><path d="M 1.921875 0 L 6.09375 0 L 6.09375 -22.324219 L 1.921875 -22.324219 Z M 1.921875 0" transform="translate(202.2 206.03)"/></g></g></g><g fill="#E94252"><g><g><path d="M 1.921875 0 L 8.375 0 C 13.75 0 18.152344 -4.367188 18.152344 -9.777344 C 18.152344 -15.1875 13.75 -19.550781 8.375 -19.550781 L 1.921875 -19.550781 Z M 6.222656 -3.8125 L 6.222656 -15.738281 L 8.34375 -15.738281 C 11.4375 -15.738281 13.851562 -13.164062 13.851562 -9.777344 C 13.851562 -6.386719 11.4375 -3.8125 8.34375 -3.8125 Z M 6.222656 -3.8125" transform="translate(216.99 206.03)"/></g></g></g><g fill="#E94252"><g><g><path d="M 4.074219 -15.21875 C 5.3125 -15.21875 6.355469 -16.261719 6.355469 -17.5 C 6.355469 -18.769531 5.3125 -19.78125 4.074219 -19.78125 C 2.835938 -19.78125 1.792969 -18.769531 1.792969 -17.5 C 1.792969 -16.261719 2.835938 -15.21875 4.074219 -15.21875 Z M 1.988281 0 L 6.125 0 L 6.125 -13.035156 L 1.988281 -13.035156 Z M 1.988281 0" transform="translate(235.82 206.03)"/></g></g></g><g fill="#E94252"><g><g><path d="M 6.125 0.261719 C 9.058594 0.261719 10.851562 -1.53125 10.851562 -3.976562 C 10.851562 -6.582031 8.699219 -7.625 6.84375 -8.34375 C 5.898438 -8.734375 5.441406 -8.929688 5.441406 -9.417969 C 5.441406 -9.839844 5.769531 -10.167969 6.484375 -10.167969 C 7.332031 -10.167969 8.113281 -9.710938 8.503906 -9.222656 L 10.589844 -11.570312 C 9.613281 -12.546875 8.015625 -13.296875 6.191406 -13.296875 C 3.226562 -13.296875 1.335938 -11.339844 1.335938 -9.125 C 1.335938 -6.515625 3.941406 -5.636719 5.441406 -5.082031 C 6.617188 -4.628906 7.007812 -4.300781 7.007812 -3.84375 C 7.007812 -3.324219 6.550781 -3.03125 5.867188 -3.03125 C 5.179688 -3.03125 4.269531 -3.292969 3.683594 -4.398438 L 0.621094 -2.867188 C 1.402344 -0.847656 3.8125 0.261719 6.125 0.261719 Z M 6.125 0.261719" transform="translate(243.443 206.03)"/></g></g></g><g fill="#E94252"><g><g><path d="M 9.808594 -13.296875 C 8.308594 -13.296875 7.070312 -12.773438 6.09375 -11.894531 L 6.09375 -13.003906 L 1.921875 -13.035156 L 1.921875 7.820312 L 6.09375 7.855469 L 6.09375 -1.140625 C 7.070312 -0.261719 8.308594 0.261719 9.808594 0.261719 C 13.394531 0.261719 16.230469 -2.738281 16.230469 -6.515625 C 16.230469 -10.296875 13.394531 -13.296875 9.808594 -13.296875 Z M 8.996094 -3.421875 C 7.265625 -3.421875 5.898438 -4.789062 5.898438 -6.515625 C 5.898438 -8.246094 7.265625 -9.613281 8.996094 -9.613281 C 10.722656 -9.613281 12.089844 -8.246094 12.089844 -6.515625 C 12.089844 -4.789062 10.722656 -3.421875 8.996094 -3.421875 Z M 8.996094 -3.421875" transform="translate(254.389 206.03)"/></g></g></g><g fill="#E94252"><g><g><path d="M 1.921875 0 L 6.09375 0 L 6.09375 -22.324219 L 1.921875 -22.324219 Z M 1.921875 0" transform="translate(271.101 206.03)"/></g></g></g><g fill="#E94252"><g><g><path d="M 16.457031 -3.390625 C 15.902344 -3.390625 15.316406 -3.585938 15.316406 -4.660156 L 15.316406 -13.035156 L 11.175781 -13.035156 L 11.175781 -11.894531 C 10.199219 -12.773438 8.960938 -13.296875 7.460938 -13.296875 C 3.84375 -13.296875 1.011719 -10.296875 1.011719 -6.515625 C 1.011719 -2.738281 3.84375 0.261719 7.460938 0.261719 C 9.351562 0.261719 10.882812 -0.585938 11.925781 -1.957031 C 12.742188 -0.621094 14.175781 0.261719 15.933594 0.261719 C 16.359375 0.261719 16.75 0.128906 17.042969 0 L 17.042969 -3.390625 Z M 8.277344 -3.421875 C 6.550781 -3.421875 5.179688 -4.789062 5.179688 -6.515625 C 5.179688 -8.246094 6.550781 -9.613281 8.277344 -9.613281 C 9.972656 -9.613281 11.371094 -8.246094 11.371094 -6.515625 C 11.371094 -4.789062 9.972656 -3.421875 8.277344 -3.421875 Z M 8.277344 -3.421875" transform="translate(278.594 206.03)"/></g></g></g><g fill="#E94252"><g><g><path d="M 10.625 -13.035156 L 7.429688 -4.398438 L 4.171875 -13.035156 L -0.164062 -13.035156 L 5.277344 0.292969 L 2.214844 7.820312 L 6.582031 7.820312 L 14.925781 -13.035156 Z M 10.625 -13.035156" transform="translate(295.6 206.03)"/></g></g></g><g fill="#F0F"><g><g><path d="M 31.375 -8.734375 C 31.375 -7.316406 31.164062 -6.03125 30.75 -4.875 C 30.332031 -3.71875 29.59375 -2.726562 28.53125 -1.90625 C 27.46875 -1.09375 26.003906 -0.457031 24.140625 0 C 22.273438 0.457031 19.910156 0.6875 17.046875 0.6875 C 14.179688 0.6875 11.804688 0.457031 9.921875 0 C 8.046875 -0.457031 6.578125 -1.09375 5.515625 -1.90625 C 4.453125 -2.726562 3.710938 -3.71875 3.296875 -4.875 C 2.890625 -6.03125 2.6875 -7.316406 2.6875 -8.734375 L 2.6875 -24.484375 C 2.6875 -25.898438 2.890625 -27.1875 3.296875 -28.34375 C 3.710938 -29.5 4.453125 -30.492188 5.515625 -31.328125 C 6.578125 -32.160156 8.046875 -32.804688 9.921875 -33.265625 C 11.804688 -33.722656 14.179688 -33.953125 17.046875 -33.953125 C 19.910156 -33.953125 22.273438 -33.722656 24.140625 -33.265625 C 26.003906 -32.804688 27.46875 -32.160156 28.53125 -31.328125 C 29.59375 -30.492188 30.332031 -29.5 30.75 -28.34375 C 31.164062 -27.1875 31.375 -25.898438 31.375 -24.484375 Z M 13.171875 -10.390625 C 13.171875 -9.773438 13.398438 -9.257812 13.859375 -8.84375 C 14.316406 -8.425781 15.378906 -8.21875 17.046875 -8.21875 C 18.710938 -8.21875 19.773438 -8.425781 20.234375 -8.84375 C 20.703125 -9.257812 20.9375 -9.773438 20.9375 -10.390625 L 20.9375 -22.828125 C 20.9375 -23.410156 20.703125 -23.910156 20.234375 -24.328125 C 19.773438 -24.742188 18.710938 -24.953125 17.046875 -24.953125 C 15.378906 -24.953125 14.316406 -24.742188 13.859375 -24.328125 C 13.398438 -23.910156 13.171875 -23.410156 13.171875 -22.828125 Z M 13.171875 -10.390625" transform="translate(18.034 165.035)"/></g></g></g><g fill="#F0F"><g><g><path d="M 20.421875 0 L 4.84375 0 C 4.257812 0 3.835938 -0.128906 3.578125 -0.390625 C 3.316406 -0.648438 3.1875 -1.070312 3.1875 -1.65625 L 3.1875 -31.609375 C 3.1875 -32.191406 3.316406 -32.613281 3.578125 -32.875 C 3.835938 -33.132812 4.257812 -33.265625 4.84375 -33.265625 L 20.421875 -33.265625 C 24.273438 -33.265625 27.128906 -32.492188 28.984375 -30.953125 C 30.847656 -29.410156 31.78125 -27.039062 31.78125 -23.84375 L 31.78125 -9.421875 C 31.78125 -6.222656 30.847656 -3.851562 28.984375 -2.3125 C 27.128906 -0.769531 24.273438 0 20.421875 0 Z M 13.671875 -24.4375 L 13.671875 -8.734375 L 19.171875 -8.734375 C 19.910156 -8.734375 20.457031 -8.914062 20.8125 -9.28125 C 21.164062 -9.65625 21.34375 -10.226562 21.34375 -11 L 21.34375 -22.21875 C 21.34375 -22.988281 21.164062 -23.550781 20.8125 -23.90625 C 20.457031 -24.257812 19.910156 -24.4375 19.171875 -24.4375 Z M 13.671875 -24.4375" transform="translate(52.089 165.035)"/></g></g></g><g fill="#F0F"><g><g><path d="M 20.421875 0 L 4.84375 0 C 4.257812 0 3.835938 -0.128906 3.578125 -0.390625 C 3.316406 -0.648438 3.1875 -1.070312 3.1875 -1.65625 L 3.1875 -31.609375 C 3.1875 -32.191406 3.316406 -32.613281 3.578125 -32.875 C 3.835938 -33.132812 4.257812 -33.265625 4.84375 -33.265625 L 20.421875 -33.265625 C 24.273438 -33.265625 27.128906 -32.492188 28.984375 -30.953125 C 30.847656 -29.410156 31.78125 -27.039062 31.78125 -23.84375 L 31.78125 -9.421875 C 31.78125 -6.222656 30.847656 -3.851562 28.984375 -2.3125 C 27.128906 -0.769531 24.273438 0 20.421875 0 Z M 13.671875 -24.4375 L 13.671875 -8.734375 L 19.171875 -8.734375 C 19.910156 -8.734375 20.457031 -8.914062 20.8125 -9.28125 C 21.164062 -9.65625 21.34375 -10.226562 21.34375 -11 L 21.34375 -22.21875 C 21.34375 -22.988281 21.164062 -23.550781 20.8125 -23.90625 C 20.457031 -24.257812 19.910156 -24.4375 19.171875 -24.4375 Z M 13.671875 -24.4375" transform="translate(86.559 165.035)"/></g></g></g><g fill="#F0F"><g><g><path d="M 18.625 0 L 4.015625 0 C 3.429688 0 3.007812 -0.128906 2.75 -0.390625 C 2.488281 -0.648438 2.359375 -1.070312 2.359375 -1.65625 L 2.359375 -7.0625 C 2.359375 -7.65625 2.488281 -8.082031 2.75 -8.34375 C 3.007812 -8.601562 3.429688 -8.734375 4.015625 -8.734375 L 16.453125 -8.734375 C 16.847656 -8.734375 17.144531 -8.863281 17.34375 -9.125 C 17.550781 -9.382812 17.65625 -9.703125 17.65625 -10.078125 C 17.65625 -10.597656 17.550781 -10.976562 17.34375 -11.21875 C 17.144531 -11.46875 16.847656 -11.609375 16.453125 -11.640625 L 9.515625 -12.609375 C 7.359375 -12.921875 5.625 -13.628906 4.3125 -14.734375 C 3.007812 -15.847656 2.359375 -17.695312 2.359375 -20.28125 L 2.359375 -25.140625 C 2.359375 -27.753906 3.203125 -29.757812 4.890625 -31.15625 C 6.585938 -32.5625 8.929688 -33.265625 11.921875 -33.265625 L 24.859375 -33.265625 C 25.441406 -33.265625 25.863281 -33.132812 26.125 -32.875 C 26.382812 -32.613281 26.515625 -32.191406 26.515625 -31.609375 L 26.515625 -26.109375 C 26.515625 -25.523438 26.382812 -25.097656 26.125 -24.828125 C 25.863281 -24.566406 25.441406 -24.4375 24.859375 -24.4375 L 14.09375 -24.4375 C 13.6875 -24.4375 13.375 -24.304688 13.15625 -24.046875 C 12.945312 -23.785156 12.84375 -23.457031 12.84375 -23.0625 C 12.84375 -22.65625 12.945312 -22.3125 13.15625 -22.03125 C 13.375 -21.757812 13.6875 -21.609375 14.09375 -21.578125 L 20.96875 -20.65625 C 23.125 -20.34375 24.863281 -19.628906 26.1875 -18.515625 C 27.519531 -17.410156 28.1875 -15.566406 28.1875 -12.984375 L 28.1875 -8.125 C 28.1875 -5.507812 27.332031 -3.5 25.625 -2.09375 C 23.914062 -0.695312 21.582031 0 18.625 0 Z M 18.625 0" transform="translate(121.03 165.035)"/></g></g></g><g fill="#F0F"><g><g><path d="M 13.671875 -8.640625 L 20.234375 -8.640625 C 20.910156 -8.640625 21.375 -8.789062 21.625 -9.09375 C 21.875 -9.40625 22 -9.867188 22 -10.484375 L 22 -16.859375 C 22 -17.441406 22.128906 -17.863281 22.390625 -18.125 C 22.648438 -18.394531 23.070312 -18.53125 23.65625 -18.53125 L 32.625 -18.53125 C 33.207031 -18.53125 33.628906 -18.394531 33.890625 -18.125 C 34.148438 -17.863281 34.28125 -17.441406 34.28125 -16.859375 L 34.28125 -11.875 C 34.28125 -11.289062 34.148438 -10.863281 33.890625 -10.59375 C 33.628906 -10.332031 33.207031 -10.203125 32.625 -10.203125 L 31.5625 -10.203125 L 31.5625 -8.125 C 31.5625 -5.664062 30.851562 -3.695312 29.4375 -2.21875 C 28.019531 -0.738281 25.96875 0 23.28125 0 L 10.4375 0 C 7.601562 0 5.4375 -0.738281 3.9375 -2.21875 C 2.445312 -3.695312 1.703125 -5.664062 1.703125 -8.125 L 1.703125 -11.828125 C 1.703125 -13.984375 2.253906 -15.675781 3.359375 -16.90625 C 4.472656 -18.144531 5.863281 -18.835938 7.53125 -18.984375 C 6.507812 -19.421875 5.800781 -20.066406 5.40625 -20.921875 C 5.007812 -21.785156 4.8125 -22.804688 4.8125 -23.984375 L 4.8125 -26.203125 C 4.8125 -28.234375 5.507812 -29.914062 6.90625 -31.25 C 8.3125 -32.59375 10.566406 -33.265625 13.671875 -33.265625 L 23.421875 -33.265625 C 24.003906 -33.265625 24.425781 -33.132812 24.6875 -32.875 C 24.957031 -32.613281 25.09375 -32.191406 25.09375 -31.609375 L 25.09375 -26.296875 C 25.09375 -25.703125 24.957031 -25.273438 24.6875 -25.015625 C 24.425781 -24.753906 24.003906 -24.625 23.421875 -24.625 L 16.671875 -24.625 C 15.941406 -24.625 15.46875 -24.484375 15.25 -24.203125 C 15.03125 -23.929688 14.921875 -23.609375 14.921875 -23.234375 L 14.921875 -22.265625 C 14.921875 -21.898438 15.03125 -21.578125 15.25 -21.296875 C 15.46875 -21.023438 15.941406 -20.890625 16.671875 -20.890625 L 17.375 -20.890625 C 17.957031 -20.890625 18.378906 -20.753906 18.640625 -20.484375 C 18.898438 -20.222656 19.03125 -19.800781 19.03125 -19.21875 L 19.03125 -14.46875 C 19.03125 -13.875 18.898438 -13.445312 18.640625 -13.1875 C 18.378906 -12.925781 17.957031 -12.796875 17.375 -12.796875 L 13.671875 -12.796875 C 12.929688 -12.796875 12.453125 -12.664062 12.234375 -12.40625 C 12.023438 -12.144531 11.921875 -11.828125 11.921875 -11.453125 L 11.921875 -10.03125 C 11.921875 -9.65625 12.023438 -9.328125 12.234375 -9.046875 C 12.453125 -8.773438 12.929688 -8.640625 13.671875 -8.640625 Z M 13.671875 -8.640625" transform="translate(161.46 165.035)"/></g></g></g><g fill="#F0F"><g><g><path d="M 26.296875 0 L 4.84375 0 C 4.257812 0 3.835938 -0.128906 3.578125 -0.390625 C 3.316406 -0.648438 3.1875 -1.070312 3.1875 -1.65625 L 3.1875 -31.609375 C 3.1875 -32.191406 3.316406 -32.613281 3.578125 -32.875 C 3.835938 -33.132812 4.257812 -33.265625 4.84375 -33.265625 L 26.296875 -33.265625 C 26.878906 -33.265625 27.300781 -33.132812 27.5625 -32.875 C 27.820312 -32.613281 27.953125 -32.191406 27.953125 -31.609375 L 27.953125 -26.203125 C 27.953125 -25.609375 27.820312 -25.179688 27.5625 -24.921875 C 27.300781 -24.660156 26.878906 -24.53125 26.296875 -24.53125 L 13.53125 -24.53125 L 13.53125 -20.96875 L 22.546875 -20.96875 C 23.128906 -20.96875 23.550781 -20.835938 23.8125 -20.578125 C 24.070312 -20.316406 24.203125 -19.894531 24.203125 -19.3125 L 24.203125 -14.375 C 24.203125 -13.78125 24.070312 -13.351562 23.8125 -13.09375 C 23.550781 -12.832031 23.128906 -12.703125 22.546875 -12.703125 L 13.53125 -12.703125 L 13.53125 -8.734375 L 26.296875 -8.734375 C 26.878906 -8.734375 27.300781 -8.601562 27.5625 -8.34375 C 27.820312 -8.082031 27.953125 -7.65625 27.953125 -7.0625 L 27.953125 -1.65625 C 27.953125 -1.070312 27.820312 -0.648438 27.5625 -0.390625 C 27.300781 -0.128906 26.878906 0 26.296875 0 Z M 26.296875 0" transform="translate(207.252 165.035)"/></g></g></g><g fill="#F0F"><g><g><path d="M 22.875 0 L 10.859375 0 C 10.273438 0 9.789062 -0.101562 9.40625 -0.3125 C 9.019531 -0.53125 8.71875 -0.9375 8.5 -1.53125 L 3.96875 -12.84375 C 3.695312 -13.519531 3.46875 -14.113281 3.28125 -14.625 C 3.09375 -15.132812 2.9375 -15.617188 2.8125 -16.078125 C 2.695312 -16.535156 2.613281 -17.019531 2.5625 -17.53125 C 2.519531 -18.039062 2.5 -18.664062 2.5 -19.40625 L 2.5 -31.609375 C 2.5 -32.191406 2.628906 -32.613281 2.890625 -32.875 C 3.148438 -33.132812 3.570312 -33.265625 4.15625 -33.265625 L 11.5 -33.265625 C 12.082031 -33.265625 12.53125 -33.132812 12.84375 -32.875 C 13.15625 -32.613281 13.3125 -32.191406 13.3125 -31.609375 L 13.3125 -18.84375 C 13.3125 -18.539062 13.335938 -18.234375 13.390625 -17.921875 C 13.453125 -17.617188 13.546875 -17.296875 13.671875 -16.953125 L 15.84375 -10.484375 C 15.9375 -10.179688 16.046875 -9.972656 16.171875 -9.859375 C 16.296875 -9.753906 16.476562 -9.703125 16.71875 -9.703125 L 17.234375 -9.703125 C 17.484375 -9.703125 17.664062 -9.753906 17.78125 -9.859375 C 17.90625 -9.972656 18.015625 -10.179688 18.109375 -10.484375 L 20.28125 -17 C 20.40625 -17.34375 20.5 -17.664062 20.5625 -17.96875 C 20.625 -18.28125 20.65625 -18.585938 20.65625 -18.890625 L 20.65625 -31.609375 C 20.65625 -32.191406 20.785156 -32.613281 21.046875 -32.875 C 21.304688 -33.132812 21.726562 -33.265625 22.3125 -33.265625 L 29.5625 -33.265625 C 30.15625 -33.265625 30.582031 -33.132812 30.84375 -32.875 C 31.101562 -32.613281 31.234375 -32.191406 31.234375 -31.609375 L 31.234375 -19.40625 C 31.234375 -18.664062 31.207031 -18.039062 31.15625 -17.53125 C 31.113281 -17.019531 31.03125 -16.535156 30.90625 -16.078125 C 30.78125 -15.617188 30.625 -15.132812 30.4375 -14.625 C 30.257812 -14.113281 30.03125 -13.519531 29.75 -12.84375 L 25.234375 -1.53125 C 25.015625 -0.9375 24.710938 -0.53125 24.328125 -0.3125 C 23.941406 -0.101562 23.457031 0 22.875 0 Z M 22.875 0" transform="translate(237.47 165.035)"/></g></g></g><g fill="#F0F"><g><g><path d="M 26.296875 0 L 4.84375 0 C 4.257812 0 3.835938 -0.128906 3.578125 -0.390625 C 3.316406 -0.648438 3.1875 -1.070312 3.1875 -1.65625 L 3.1875 -31.609375 C 3.1875 -32.191406 3.316406 -32.613281 3.578125 -32.875 C 3.835938 -33.132812 4.257812 -33.265625 4.84375 -33.265625 L 26.296875 -33.265625 C 26.878906 -33.265625 27.300781 -33.132812 27.5625 -32.875 C 27.820312 -32.613281 27.953125 -32.191406 27.953125 -31.609375 L 27.953125 -26.203125 C 27.953125 -25.609375 27.820312 -25.179688 27.5625 -24.921875 C 27.300781 -24.660156 26.878906 -24.53125 26.296875 -24.53125 L 13.53125 -24.53125 L 13.53125 -20.96875 L 22.546875 -20.96875 C 23.128906 -20.96875 23.550781 -20.835938 23.8125 -20.578125 C 24.070312 -20.316406 24.203125 -19.894531 24.203125 -19.3125 L 24.203125 -14.375 C 24.203125 -13.78125 24.070312 -13.351562 23.8125 -13.09375 C 23.550781 -12.832031 23.128906 -12.703125 22.546875 -12.703125 L 13.53125 -12.703125 L 13.53125 -8.734375 L 26.296875 -8.734375 C 26.878906 -8.734375 27.300781 -8.601562 27.5625 -8.34375 C 27.820312 -8.082031 27.953125 -7.65625 27.953125 -7.0625 L 27.953125 -1.65625 C 27.953125 -1.070312 27.820312 -0.648438 27.5625 -0.390625 C 27.300781 -0.128906 26.878906 0 26.296875 0 Z M 26.296875 0" transform="translate(271.202 165.035)"/></g></g></g><g fill="#F0F"><g><g><path d="M 11.78125 0 L 4.84375 0 C 4.257812 0 3.835938 -0.128906 3.578125 -0.390625 C 3.316406 -0.648438 3.1875 -1.070312 3.1875 -1.65625 L 3.1875 -31.609375 C 3.1875 -32.191406 3.316406 -32.613281 3.578125 -32.875 C 3.835938 -33.132812 4.257812 -33.265625 4.84375 -33.265625 L 9.65625 -33.265625 C 10.238281 -33.265625 10.738281 -33.171875 11.15625 -32.984375 C 11.570312 -32.804688 11.976562 -32.484375 12.375 -32.015625 L 21.34375 -21.765625 L 21.34375 -31.609375 C 21.34375 -32.191406 21.472656 -32.613281 21.734375 -32.875 C 21.992188 -33.132812 22.421875 -33.265625 23.015625 -33.265625 L 29.9375 -33.265625 C 30.519531 -33.265625 30.941406 -33.132812 31.203125 -32.875 C 31.472656 -32.613281 31.609375 -32.191406 31.609375 -31.609375 L 31.609375 -1.65625 C 31.609375 -1.070312 31.472656 -0.648438 31.203125 -0.390625 C 30.941406 -0.128906 30.519531 0 29.9375 0 L 23.015625 0 C 22.421875 0 21.992188 -0.128906 21.734375 -0.390625 C 21.472656 -0.648438 21.34375 -1.070312 21.34375 -1.65625 L 21.34375 -7.34375 L 13.4375 -16.90625 L 13.4375 -1.65625 C 13.4375 -1.070312 13.304688 -0.648438 13.046875 -0.390625 C 12.785156 -0.128906 12.363281 0 11.78125 0 Z M 11.78125 0" transform="translate(301.421 165.035)"/></g></g></g><g fill="#F0F"><g><g><path d="M 18.625 0 L 4.015625 0 C 3.429688 0 3.007812 -0.128906 2.75 -0.390625 C 2.488281 -0.648438 2.359375 -1.070312 2.359375 -1.65625 L 2.359375 -7.0625 C 2.359375 -7.65625 2.488281 -8.082031 2.75 -8.34375 C 3.007812 -8.601562 3.429688 -8.734375 4.015625 -8.734375 L 16.453125 -8.734375 C 16.847656 -8.734375 17.144531 -8.863281 17.34375 -9.125 C 17.550781 -9.382812 17.65625 -9.703125 17.65625 -10.078125 C 17.65625 -10.597656 17.550781 -10.976562 17.34375 -11.21875 C 17.144531 -11.46875 16.847656 -11.609375 16.453125 -11.640625 L 9.515625 -12.609375 C 7.359375 -12.921875 5.625 -13.628906 4.3125 -14.734375 C 3.007812 -15.847656 2.359375 -17.695312 2.359375 -20.28125 L 2.359375 -25.140625 C 2.359375 -27.753906 3.203125 -29.757812 4.890625 -31.15625 C 6.585938 -32.5625 8.929688 -33.265625 11.921875 -33.265625 L 24.859375 -33.265625 C 25.441406 -33.265625 25.863281 -33.132812 26.125 -32.875 C 26.382812 -32.613281 26.515625 -32.191406 26.515625 -31.609375 L 26.515625 -26.109375 C 26.515625 -25.523438 26.382812 -25.097656 26.125 -24.828125 C 25.863281 -24.566406 25.441406 -24.4375 24.859375 -24.4375 L 14.09375 -24.4375 C 13.6875 -24.4375 13.375 -24.304688 13.15625 -24.046875 C 12.945312 -23.785156 12.84375 -23.457031 12.84375 -23.0625 C 12.84375 -22.65625 12.945312 -22.3125 13.15625 -22.03125 C 13.375 -21.757812 13.6875 -21.609375 14.09375 -21.578125 L 20.96875 -20.65625 C 23.125 -20.34375 24.863281 -19.628906 26.1875 -18.515625 C 27.519531 -17.410156 28.1875 -15.566406 28.1875 -12.984375 L 28.1875 -8.125 C 28.1875 -5.507812 27.332031 -3.5 25.625 -2.09375 C 23.914062 -0.695312 21.582031 0 18.625 0 Z M 18.625 0" transform="translate(336.215 165.035)"/></g></g></g><g fill="#0FF"><g><g><path d="M 31.375 -8.734375 C 31.375 -7.316406 31.164062 -6.03125 30.75 -4.875 C 30.332031 -3.71875 29.59375 -2.726562 28.53125 -1.90625 C 27.46875 -1.09375 26.003906 -0.457031 24.140625 0 C 22.273438 0.457031 19.910156 0.6875 17.046875 0.6875 C 14.179688 0.6875 11.804688 0.457031 9.921875 0 C 8.046875 -0.457031 6.578125 -1.09375 5.515625 -1.90625 C 4.453125 -2.726562 3.710938 -3.71875 3.296875 -4.875 C 2.890625 -6.03125 2.6875 -7.316406 2.6875 -8.734375 L 2.6875 -24.484375 C 2.6875 -25.898438 2.890625 -27.1875 3.296875 -28.34375 C 3.710938 -29.5 4.453125 -30.492188 5.515625 -31.328125 C 6.578125 -32.160156 8.046875 -32.804688 9.921875 -33.265625 C 11.804688 -33.722656 14.179688 -33.953125 17.046875 -33.953125 C 19.910156 -33.953125 22.273438 -33.722656 24.140625 -33.265625 C 26.003906 -32.804688 27.46875 -32.160156 28.53125 -31.328125 C 29.59375 -30.492188 30.332031 -29.5 30.75 -28.34375 C 31.164062 -27.1875 31.375 -25.898438 31.375 -24.484375 Z M 13.171875 -10.390625 C 13.171875 -9.773438 13.398438 -9.257812 13.859375 -8.84375 C 14.316406 -8.425781 15.378906 -8.21875 17.046875 -8.21875 C 18.710938 -8.21875 19.773438 -8.425781 20.234375 -8.84375 C 20.703125 -9.257812 20.9375 -9.773438 20.9375 -10.390625 L 20.9375 -22.828125 C 20.9375 -23.410156 20.703125 -23.910156 20.234375 -24.328125 C 19.773438 -24.742188 18.710938 -24.953125 17.046875 -24.953125 C 15.378906 -24.953125 14.316406 -24.742188 13.859375 -24.328125 C 13.398438 -23.910156 13.171875 -23.410156 13.171875 -22.828125 Z M 13.171875 -10.390625" transform="translate(20.442 162.79)"/></g></g></g><g fill="#0FF"><g><g><path d="M 20.421875 0 L 4.84375 0 C 4.257812 0 3.835938 -0.128906 3.578125 -0.390625 C 3.316406 -0.648438 3.1875 -1.070312 3.1875 -1.65625 L 3.1875 -31.609375 C 3.1875 -32.191406 3.316406 -32.613281 3.578125 -32.875 C 3.835938 -33.132812 4.257812 -33.265625 4.84375 -33.265625 L 20.421875 -33.265625 C 24.273438 -33.265625 27.128906 -32.492188 28.984375 -30.953125 C 30.847656 -29.410156 31.78125 -27.039062 31.78125 -23.84375 L 31.78125 -9.421875 C 31.78125 -6.222656 30.847656 -3.851562 28.984375 -2.3125 C 27.128906 -0.769531 24.273438 0 20.421875 0 Z M 13.671875 -24.4375 L 13.671875 -8.734375 L 19.171875 -8.734375 C 19.910156 -8.734375 20.457031 -8.914062 20.8125 -9.28125 C 21.164062 -9.65625 21.34375 -10.226562 21.34375 -11 L 21.34375 -22.21875 C 21.34375 -22.988281 21.164062 -23.550781 20.8125 -23.90625 C 20.457031 -24.257812 19.910156 -24.4375 19.171875 -24.4375 Z M 13.671875 -24.4375" transform="translate(54.497 162.79)"/></g></g></g><g fill="#0FF"><g><g><path d="M 20.421875 0 L 4.84375 0 C 4.257812 0 3.835938 -0.128906 3.578125 -0.390625 C 3.316406 -0.648438 3.1875 -1.070312 3.1875 -1.65625 L 3.1875 -31.609375 C 3.1875 -32.191406 3.316406 -32.613281 3.578125 -32.875 C 3.835938 -33.132812 4.257812 -33.265625 4.84375 -33.265625 L 20.421875 -33.265625 C 24.273438 -33.265625 27.128906 -32.492188 28.984375 -30.953125 C 30.847656 -29.410156 31.78125 -27.039062 31.78125 -23.84375 L 31.78125 -9.421875 C 31.78125 -6.222656 30.847656 -3.851562 28.984375 -2.3125 C 27.128906 -0.769531 24.273438 0 20.421875 0 Z M 13.671875 -24.4375 L 13.671875 -8.734375 L 19.171875 -8.734375 C 19.910156 -8.734375 20.457031 -8.914062 20.8125 -9.28125 C 21.164062 -9.65625 21.34375 -10.226562 21.34375 -11 L 21.34375 -22.21875 C 21.34375 -22.988281 21.164062 -23.550781 20.8125 -23.90625 C 20.457031 -24.257812 19.910156 -24.4375 19.171875 -24.4375 Z M 13.671875 -24.4375" transform="translate(88.967 162.79)"/></g></g></g><g fill="#0FF"><g><g><path d="M 18.625 0 L 4.015625 0 C 3.429688 0 3.007812 -0.128906 2.75 -0.390625 C 2.488281 -0.648438 2.359375 -1.070312 2.359375 -1.65625 L 2.359375 -7.0625 C 2.359375 -7.65625 2.488281 -8.082031 2.75 -8.34375 C 3.007812 -8.601562 3.429688 -8.734375 4.015625 -8.734375 L 16.453125 -8.734375 C 16.847656 -8.734375 17.144531 -8.863281 17.34375 -9.125 C 17.550781 -9.382812 17.65625 -9.703125 17.65625 -10.078125 C 17.65625 -10.597656 17.550781 -10.976562 17.34375 -11.21875 C 17.144531 -11.46875 16.847656 -11.609375 16.453125 -11.640625 L 9.515625 -12.609375 C 7.359375 -12.921875 5.625 -13.628906 4.3125 -14.734375 C 3.007812 -15.847656 2.359375 -17.695312 2.359375 -20.28125 L 2.359375 -25.140625 C 2.359375 -27.753906 3.203125 -29.757812 4.890625 -31.15625 C 6.585938 -32.5625 8.929688 -33.265625 11.921875 -33.265625 L 24.859375 -33.265625 C 25.441406 -33.265625 25.863281 -33.132812 26.125 -32.875 C 26.382812 -32.613281 26.515625 -32.191406 26.515625 -31.609375 L 26.515625 -26.109375 C 26.515625 -25.523438 26.382812 -25.097656 26.125 -24.828125 C 25.863281 -24.566406 25.441406 -24.4375 24.859375 -24.4375 L 14.09375 -24.4375 C 13.6875 -24.4375 13.375 -24.304688 13.15625 -24.046875 C 12.945312 -23.785156 12.84375 -23.457031 12.84375 -23.0625 C 12.84375 -22.65625 12.945312 -22.3125 13.15625 -22.03125 C 13.375 -21.757812 13.6875 -21.609375 14.09375 -21.578125 L 20.96875 -20.65625 C 23.125 -20.34375 24.863281 -19.628906 26.1875 -18.515625 C 27.519531 -17.410156 28.1875 -15.566406 28.1875 -12.984375 L 28.1875 -8.125 C 28.1875 -5.507812 27.332031 -3.5 25.625 -2.09375 C 23.914062 -0.695312 21.582031 0 18.625 0 Z M 18.625 0" transform="translate(123.437 162.79)"/></g></g></g><g fill="#0FF"><g><g><path d="M 13.671875 -8.640625 L 20.234375 -8.640625 C 20.910156 -8.640625 21.375 -8.789062 21.625 -9.09375 C 21.875 -9.40625 22 -9.867188 22 -10.484375 L 22 -16.859375 C 22 -17.441406 22.128906 -17.863281 22.390625 -18.125 C 22.648438 -18.394531 23.070312 -18.53125 23.65625 -18.53125 L 32.625 -18.53125 C 33.207031 -18.53125 33.628906 -18.394531 33.890625 -18.125 C 34.148438 -17.863281 34.28125 -17.441406 34.28125 -16.859375 L 34.28125 -11.875 C 34.28125 -11.289062 34.148438 -10.863281 33.890625 -10.59375 C 33.628906 -10.332031 33.207031 -10.203125 32.625 -10.203125 L 31.5625 -10.203125 L 31.5625 -8.125 C 31.5625 -5.664062 30.851562 -3.695312 29.4375 -2.21875 C 28.019531 -0.738281 25.96875 0 23.28125 0 L 10.4375 0 C 7.601562 0 5.4375 -0.738281 3.9375 -2.21875 C 2.445312 -3.695312 1.703125 -5.664062 1.703125 -8.125 L 1.703125 -11.828125 C 1.703125 -13.984375 2.253906 -15.675781 3.359375 -16.90625 C 4.472656 -18.144531 5.863281 -18.835938 7.53125 -18.984375 C 6.507812 -19.421875 5.800781 -20.066406 5.40625 -20.921875 C 5.007812 -21.785156 4.8125 -22.804688 4.8125 -23.984375 L 4.8125 -26.203125 C 4.8125 -28.234375 5.507812 -29.914062 6.90625 -31.25 C 8.3125 -32.59375 10.566406 -33.265625 13.671875 -33.265625 L 23.421875 -33.265625 C 24.003906 -33.265625 24.425781 -33.132812 24.6875 -32.875 C 24.957031 -32.613281 25.09375 -32.191406 25.09375 -31.609375 L 25.09375 -26.296875 C 25.09375 -25.703125 24.957031 -25.273438 24.6875 -25.015625 C 24.425781 -24.753906 24.003906 -24.625 23.421875 -24.625 L 16.671875 -24.625 C 15.941406 -24.625 15.46875 -24.484375 15.25 -24.203125 C 15.03125 -23.929688 14.921875 -23.609375 14.921875 -23.234375 L 14.921875 -22.265625 C 14.921875 -21.898438 15.03125 -21.578125 15.25 -21.296875 C 15.46875 -21.023438 15.941406 -20.890625 16.671875 -20.890625 L 17.375 -20.890625 C 17.957031 -20.890625 18.378906 -20.753906 18.640625 -20.484375 C 18.898438 -20.222656 19.03125 -19.800781 19.03125 -19.21875 L 19.03125 -14.46875 C 19.03125 -13.875 18.898438 -13.445312 18.640625 -13.1875 C 18.378906 -12.925781 17.957031 -12.796875 17.375 -12.796875 L 13.671875 -12.796875 C 12.929688 -12.796875 12.453125 -12.664062 12.234375 -12.40625 C 12.023438 -12.144531 11.921875 -11.828125 11.921875 -11.453125 L 11.921875 -10.03125 C 11.921875 -9.65625 12.023438 -9.328125 12.234375 -9.046875 C 12.453125 -8.773438 12.929688 -8.640625 13.671875 -8.640625 Z M 13.671875 -8.640625" transform="translate(163.868 162.79)"/></g></g></g><g fill="#0FF"><g><g><path d="M 26.296875 0 L 4.84375 0 C 4.257812 0 3.835938 -0.128906 3.578125 -0.390625 C 3.316406 -0.648438 3.1875 -1.070312 3.1875 -1.65625 L 3.1875 -31.609375 C 3.1875 -32.191406 3.316406 -32.613281 3.578125 -32.875 C 3.835938 -33.132812 4.257812 -33.265625 4.84375 -33.265625 L 26.296875 -33.265625 C 26.878906 -33.265625 27.300781 -33.132812 27.5625 -32.875 C 27.820312 -32.613281 27.953125 -32.191406 27.953125 -31.609375 L 27.953125 -26.203125 C 27.953125 -25.609375 27.820312 -25.179688 27.5625 -24.921875 C 27.300781 -24.660156 26.878906 -24.53125 26.296875 -24.53125 L 13.53125 -24.53125 L 13.53125 -20.96875 L 22.546875 -20.96875 C 23.128906 -20.96875 23.550781 -20.835938 23.8125 -20.578125 C 24.070312 -20.316406 24.203125 -19.894531 24.203125 -19.3125 L 24.203125 -14.375 C 24.203125 -13.78125 24.070312 -13.351562 23.8125 -13.09375 C 23.550781 -12.832031 23.128906 -12.703125 22.546875 -12.703125 L 13.53125 -12.703125 L 13.53125 -8.734375 L 26.296875 -8.734375 C 26.878906 -8.734375 27.300781 -8.601562 27.5625 -8.34375 C 27.820312 -8.082031 27.953125 -7.65625 27.953125 -7.0625 L 27.953125 -1.65625 C 27.953125 -1.070312 27.820312 -0.648438 27.5625 -0.390625 C 27.300781 -0.128906 26.878906 0 26.296875 0 Z M 26.296875 0" transform="translate(209.66 162.79)"/></g></g></g><g fill="#0FF"><g><g><path d="M 22.875 0 L 10.859375 0 C 10.273438 0 9.789062 -0.101562 9.40625 -0.3125 C 9.019531 -0.53125 8.71875 -0.9375 8.5 -1.53125 L 3.96875 -12.84375 C 3.695312 -13.519531 3.46875 -14.113281 3.28125 -14.625 C 3.09375 -15.132812 2.9375 -15.617188 2.8125 -16.078125 C 2.695312 -16.535156 2.613281 -17.019531 2.5625 -17.53125 C 2.519531 -18.039062 2.5 -18.664062 2.5 -19.40625 L 2.5 -31.609375 C 2.5 -32.191406 2.628906 -32.613281 2.890625 -32.875 C 3.148438 -33.132812 3.570312 -33.265625 4.15625 -33.265625 L 11.5 -33.265625 C 12.082031 -33.265625 12.53125 -33.132812 12.84375 -32.875 C 13.15625 -32.613281 13.3125 -32.191406 13.3125 -31.609375 L 13.3125 -18.84375 C 13.3125 -18.539062 13.335938 -18.234375 13.390625 -17.921875 C 13.453125 -17.617188 13.546875 -17.296875 13.671875 -16.953125 L 15.84375 -10.484375 C 15.9375 -10.179688 16.046875 -9.972656 16.171875 -9.859375 C 16.296875 -9.753906 16.476562 -9.703125 16.71875 -9.703125 L 17.234375 -9.703125 C 17.484375 -9.703125 17.664062 -9.753906 17.78125 -9.859375 C 17.90625 -9.972656 18.015625 -10.179688 18.109375 -10.484375 L 20.28125 -17 C 20.40625 -17.34375 20.5 -17.664062 20.5625 -17.96875 C 20.625 -18.28125 20.65625 -18.585938 20.65625 -18.890625 L 20.65625 -31.609375 C 20.65625 -32.191406 20.785156 -32.613281 21.046875 -32.875 C 21.304688 -33.132812 21.726562 -33.265625 22.3125 -33.265625 L 29.5625 -33.265625 C 30.15625 -33.265625 30.582031 -33.132812 30.84375 -32.875 C 31.101562 -32.613281 31.234375 -32.191406 31.234375 -31.609375 L 31.234375 -19.40625 C 31.234375 -18.664062 31.207031 -18.039062 31.15625 -17.53125 C 31.113281 -17.019531 31.03125 -16.535156 30.90625 -16.078125 C 30.78125 -15.617188 30.625 -15.132812 30.4375 -14.625 C 30.257812 -14.113281 30.03125 -13.519531 29.75 -12.84375 L 25.234375 -1.53125 C 25.015625 -0.9375 24.710938 -0.53125 24.328125 -0.3125 C 23.941406 -0.101562 23.457031 0 22.875 0 Z M 22.875 0" transform="translate(239.879 162.79)"/></g></g></g><g fill="#0FF"><g><g><path d="M 26.296875 0 L 4.84375 0 C 4.257812 0 3.835938 -0.128906 3.578125 -0.390625 C 3.316406 -0.648438 3.1875 -1.070312 3.1875 -1.65625 L 3.1875 -31.609375 C 3.1875 -32.191406 3.316406 -32.613281 3.578125 -32.875 C 3.835938 -33.132812 4.257812 -33.265625 4.84375 -33.265625 L 26.296875 -33.265625 C 26.878906 -33.265625 27.300781 -33.132812 27.5625 -32.875 C 27.820312 -32.613281 27.953125 -32.191406 27.953125 -31.609375 L 27.953125 -26.203125 C 27.953125 -25.609375 27.820312 -25.179688 27.5625 -24.921875 C 27.300781 -24.660156 26.878906 -24.53125 26.296875 -24.53125 L 13.53125 -24.53125 L 13.53125 -20.96875 L 22.546875 -20.96875 C 23.128906 -20.96875 23.550781 -20.835938 23.8125 -20.578125 C 24.070312 -20.316406 24.203125 -19.894531 24.203125 -19.3125 L 24.203125 -14.375 C 24.203125 -13.78125 24.070312 -13.351562 23.8125 -13.09375 C 23.550781 -12.832031 23.128906 -12.703125 22.546875 -12.703125 L 13.53125 -12.703125 L 13.53125 -8.734375 L 26.296875 -8.734375 C 26.878906 -8.734375 27.300781 -8.601562 27.5625 -8.34375 C 27.820312 -8.082031 27.953125 -7.65625 27.953125 -7.0625 L 27.953125 -1.65625 C 27.953125 -1.070312 27.820312 -0.648438 27.5625 -0.390625 C 27.300781 -0.128906 26.878906 0 26.296875 0 Z M 26.296875 0" transform="translate(273.61 162.79)"/></g></g></g><g fill="#0FF"><g><g><path d="M 11.78125 0 L 4.84375 0 C 4.257812 0 3.835938 -0.128906 3.578125 -0.390625 C 3.316406 -0.648438 3.1875 -1.070312 3.1875 -1.65625 L 3.1875 -31.609375 C 3.1875 -32.191406 3.316406 -32.613281 3.578125 -32.875 C 3.835938 -33.132812 4.257812 -33.265625 4.84375 -33.265625 L 9.65625 -33.265625 C 10.238281 -33.265625 10.738281 -33.171875 11.15625 -32.984375 C 11.570312 -32.804688 11.976562 -32.484375 12.375 -32.015625 L 21.34375 -21.765625 L 21.34375 -31.609375 C 21.34375 -32.191406 21.472656 -32.613281 21.734375 -32.875 C 21.992188 -33.132812 22.421875 -33.265625 23.015625 -33.265625 L 29.9375 -33.265625 C 30.519531 -33.265625 30.941406 -33.132812 31.203125 -32.875 C 31.472656 -32.613281 31.609375 -32.191406 31.609375 -31.609375 L 31.609375 -1.65625 C 31.609375 -1.070312 31.472656 -0.648438 31.203125 -0.390625 C 30.941406 -0.128906 30.519531 0 29.9375 0 L 23.015625 0 C 22.421875 0 21.992188 -0.128906 21.734375 -0.390625 C 21.472656 -0.648438 21.34375 -1.070312 21.34375 -1.65625 L 21.34375 -7.34375 L 13.4375 -16.90625 L 13.4375 -1.65625 C 13.4375 -1.070312 13.304688 -0.648438 13.046875 -0.390625 C 12.785156 -0.128906 12.363281 0 11.78125 0 Z M 11.78125 0" transform="translate(303.83 162.79)"/></g></g></g><g fill="#0FF"><g><g><path d="M 18.625 0 L 4.015625 0 C 3.429688 0 3.007812 -0.128906 2.75 -0.390625 C 2.488281 -0.648438 2.359375 -1.070312 2.359375 -1.65625 L 2.359375 -7.0625 C 2.359375 -7.65625 2.488281 -8.082031 2.75 -8.34375 C 3.007812 -8.601562 3.429688 -8.734375 4.015625 -8.734375 L 16.453125 -8.734375 C 16.847656 -8.734375 17.144531 -8.863281 17.34375 -9.125 C 17.550781 -9.382812 17.65625 -9.703125 17.65625 -10.078125 C 17.65625 -10.597656 17.550781 -10.976562 17.34375 -11.21875 C 17.144531 -11.46875 16.847656 -11.609375 16.453125 -11.640625 L 9.515625 -12.609375 C 7.359375 -12.921875 5.625 -13.628906 4.3125 -14.734375 C 3.007812 -15.847656 2.359375 -17.695312 2.359375 -20.28125 L 2.359375 -25.140625 C 2.359375 -27.753906 3.203125 -29.757812 4.890625 -31.15625 C 6.585938 -32.5625 8.929688 -33.265625 11.921875 -33.265625 L 24.859375 -33.265625 C 25.441406 -33.265625 25.863281 -33.132812 26.125 -32.875 C 26.382812 -32.613281 26.515625 -32.191406 26.515625 -31.609375 L 26.515625 -26.109375 C 26.515625 -25.523438 26.382812 -25.097656 26.125 -24.828125 C 25.863281 -24.566406 25.441406 -24.4375 24.859375 -24.4375 L 14.09375 -24.4375 C 13.6875 -24.4375 13.375 -24.304688 13.15625 -24.046875 C 12.945312 -23.785156 12.84375 -23.457031 12.84375 -23.0625 C 12.84375 -22.65625 12.945312 -22.3125 13.15625 -22.03125 C 13.375 -21.757812 13.6875 -21.609375 14.09375 -21.578125 L 20.96875 -20.65625 C 23.125 -20.34375 24.863281 -19.628906 26.1875 -18.515625 C 27.519531 -17.410156 28.1875 -15.566406 28.1875 -12.984375 L 28.1875 -8.125 C 28.1875 -5.507812 27.332031 -3.5 25.625 -2.09375 C 23.914062 -0.695312 21.582031 0 18.625 0 Z M 18.625 0" transform="translate(338.623 162.79)"/></g></g></g><g fill="#7843E6"><g><g><path d="M 31.375 -8.734375 C 31.375 -7.316406 31.164062 -6.03125 30.75 -4.875 C 30.332031 -3.71875 29.59375 -2.726562 28.53125 -1.90625 C 27.46875 -1.09375 26.003906 -0.457031 24.140625 0 C 22.273438 0.457031 19.910156 0.6875 17.046875 0.6875 C 14.179688 0.6875 11.804688 0.457031 9.921875 0 C 8.046875 -0.457031 6.578125 -1.09375 5.515625 -1.90625 C 4.453125 -2.726562 3.710938 -3.71875 3.296875 -4.875 C 2.890625 -6.03125 2.6875 -7.316406 2.6875 -8.734375 L 2.6875 -24.484375 C 2.6875 -25.898438 2.890625 -27.1875 3.296875 -28.34375 C 3.710938 -29.5 4.453125 -30.492188 5.515625 -31.328125 C 6.578125 -32.160156 8.046875 -32.804688 9.921875 -33.265625 C 11.804688 -33.722656 14.179688 -33.953125 17.046875 -33.953125 C 19.910156 -33.953125 22.273438 -33.722656 24.140625 -33.265625 C 26.003906 -32.804688 27.46875 -32.160156 28.53125 -31.328125 C 29.59375 -30.492188 30.332031 -29.5 30.75 -28.34375 C 31.164062 -27.1875 31.375 -25.898438 31.375 -24.484375 Z M 13.171875 -10.390625 C 13.171875 -9.773438 13.398438 -9.257812 13.859375 -8.84375 C 14.316406 -8.425781 15.378906 -8.21875 17.046875 -8.21875 C 18.710938 -8.21875 19.773438 -8.425781 20.234375 -8.84375 C 20.703125 -9.257812 20.9375 -9.773438 20.9375 -10.390625 L 20.9375 -22.828125 C 20.9375 -23.410156 20.703125 -23.910156 20.234375 -24.328125 C 19.773438 -24.742188 18.710938 -24.953125 17.046875 -24.953125 C 15.378906 -24.953125 14.316406 -24.742188 13.859375 -24.328125 C 13.398438 -23.910156 13.171875 -23.410156 13.171875 -22.828125 Z M 13.171875 -10.390625" transform="translate(19.238 163.912)"/></g></g></g><g fill="#7843E6"><g><g><path d="M 20.421875 0 L 4.84375 0 C 4.257812 0 3.835938 -0.128906 3.578125 -0.390625 C 3.316406 -0.648438 3.1875 -1.070312 3.1875 -1.65625 L 3.1875 -31.609375 C 3.1875 -32.191406 3.316406 -32.613281 3.578125 -32.875 C 3.835938 -33.132812 4.257812 -33.265625 4.84375 -33.265625 L 20.421875 -33.265625 C 24.273438 -33.265625 27.128906 -32.492188 28.984375 -30.953125 C 30.847656 -29.410156 31.78125 -27.039062 31.78125 -23.84375 L 31.78125 -9.421875 C 31.78125 -6.222656 30.847656 -3.851562 28.984375 -2.3125 C 27.128906 -0.769531 24.273438 0 20.421875 0 Z M 13.671875 -24.4375 L 13.671875 -8.734375 L 19.171875 -8.734375 C 19.910156 -8.734375 20.457031 -8.914062 20.8125 -9.28125 C 21.164062 -9.65625 21.34375 -10.226562 21.34375 -11 L 21.34375 -22.21875 C 21.34375 -22.988281 21.164062 -23.550781 20.8125 -23.90625 C 20.457031 -24.257812 19.910156 -24.4375 19.171875 -24.4375 Z M 13.671875 -24.4375" transform="translate(53.293 163.912)"/></g></g></g><g fill="#7843E6"><g><g><path d="M 20.421875 0 L 4.84375 0 C 4.257812 0 3.835938 -0.128906 3.578125 -0.390625 C 3.316406 -0.648438 3.1875 -1.070312 3.1875 -1.65625 L 3.1875 -31.609375 C 3.1875 -32.191406 3.316406 -32.613281 3.578125 -32.875 C 3.835938 -33.132812 4.257812 -33.265625 4.84375 -33.265625 L 20.421875 -33.265625 C 24.273438 -33.265625 27.128906 -32.492188 28.984375 -30.953125 C 30.847656 -29.410156 31.78125 -27.039062 31.78125 -23.84375 L 31.78125 -9.421875 C 31.78125 -6.222656 30.847656 -3.851562 28.984375 -2.3125 C 27.128906 -0.769531 24.273438 0 20.421875 0 Z M 13.671875 -24.4375 L 13.671875 -8.734375 L 19.171875 -8.734375 C 19.910156 -8.734375 20.457031 -8.914062 20.8125 -9.28125 C 21.164062 -9.65625 21.34375 -10.226562 21.34375 -11 L 21.34375 -22.21875 C 21.34375 -22.988281 21.164062 -23.550781 20.8125 -23.90625 C 20.457031 -24.257812 19.910156 -24.4375 19.171875 -24.4375 Z M 13.671875 -24.4375" transform="translate(87.763 163.912)"/></g></g></g><g fill="#7843E6"><g><g><path d="M 18.625 0 L 4.015625 0 C 3.429688 0 3.007812 -0.128906 2.75 -0.390625 C 2.488281 -0.648438 2.359375 -1.070312 2.359375 -1.65625 L 2.359375 -7.0625 C 2.359375 -7.65625 2.488281 -8.082031 2.75 -8.34375 C 3.007812 -8.601562 3.429688 -8.734375 4.015625 -8.734375 L 16.453125 -8.734375 C 16.847656 -8.734375 17.144531 -8.863281 17.34375 -9.125 C 17.550781 -9.382812 17.65625 -9.703125 17.65625 -10.078125 C 17.65625 -10.597656 17.550781 -10.976562 17.34375 -11.21875 C 17.144531 -11.46875 16.847656 -11.609375 16.453125 -11.640625 L 9.515625 -12.609375 C 7.359375 -12.921875 5.625 -13.628906 4.3125 -14.734375 C 3.007812 -15.847656 2.359375 -17.695312 2.359375 -20.28125 L 2.359375 -25.140625 C 2.359375 -27.753906 3.203125 -29.757812 4.890625 -31.15625 C 6.585938 -32.5625 8.929688 -33.265625 11.921875 -33.265625 L 24.859375 -33.265625 C 25.441406 -33.265625 25.863281 -33.132812 26.125 -32.875 C 26.382812 -32.613281 26.515625 -32.191406 26.515625 -31.609375 L 26.515625 -26.109375 C 26.515625 -25.523438 26.382812 -25.097656 26.125 -24.828125 C 25.863281 -24.566406 25.441406 -24.4375 24.859375 -24.4375 L 14.09375 -24.4375 C 13.6875 -24.4375 13.375 -24.304688 13.15625 -24.046875 C 12.945312 -23.785156 12.84375 -23.457031 12.84375 -23.0625 C 12.84375 -22.65625 12.945312 -22.3125 13.15625 -22.03125 C 13.375 -21.757812 13.6875 -21.609375 14.09375 -21.578125 L 20.96875 -20.65625 C 23.125 -20.34375 24.863281 -19.628906 26.1875 -18.515625 C 27.519531 -17.410156 28.1875 -15.566406 28.1875 -12.984375 L 28.1875 -8.125 C 28.1875 -5.507812 27.332031 -3.5 25.625 -2.09375 C 23.914062 -0.695312 21.582031 0 18.625 0 Z M 18.625 0" transform="translate(122.233 163.912)"/></g></g></g><g fill="#7843E6"><g><g><path d="M 13.671875 -8.640625 L 20.234375 -8.640625 C 20.910156 -8.640625 21.375 -8.789062 21.625 -9.09375 C 21.875 -9.40625 22 -9.867188 22 -10.484375 L 22 -16.859375 C 22 -17.441406 22.128906 -17.863281 22.390625 -18.125 C 22.648438 -18.394531 23.070312 -18.53125 23.65625 -18.53125 L 32.625 -18.53125 C 33.207031 -18.53125 33.628906 -18.394531 33.890625 -18.125 C 34.148438 -17.863281 34.28125 -17.441406 34.28125 -16.859375 L 34.28125 -11.875 C 34.28125 -11.289062 34.148438 -10.863281 33.890625 -10.59375 C 33.628906 -10.332031 33.207031 -10.203125 32.625 -10.203125 L 31.5625 -10.203125 L 31.5625 -8.125 C 31.5625 -5.664062 30.851562 -3.695312 29.4375 -2.21875 C 28.019531 -0.738281 25.96875 0 23.28125 0 L 10.4375 0 C 7.601562 0 5.4375 -0.738281 3.9375 -2.21875 C 2.445312 -3.695312 1.703125 -5.664062 1.703125 -8.125 L 1.703125 -11.828125 C 1.703125 -13.984375 2.253906 -15.675781 3.359375 -16.90625 C 4.472656 -18.144531 5.863281 -18.835938 7.53125 -18.984375 C 6.507812 -19.421875 5.800781 -20.066406 5.40625 -20.921875 C 5.007812 -21.785156 4.8125 -22.804688 4.8125 -23.984375 L 4.8125 -26.203125 C 4.8125 -28.234375 5.507812 -29.914062 6.90625 -31.25 C 8.3125 -32.59375 10.566406 -33.265625 13.671875 -33.265625 L 23.421875 -33.265625 C 24.003906 -33.265625 24.425781 -33.132812 24.6875 -32.875 C 24.957031 -32.613281 25.09375 -32.191406 25.09375 -31.609375 L 25.09375 -26.296875 C 25.09375 -25.703125 24.957031 -25.273438 24.6875 -25.015625 C 24.425781 -24.753906 24.003906 -24.625 23.421875 -24.625 L 16.671875 -24.625 C 15.941406 -24.625 15.46875 -24.484375 15.25 -24.203125 C 15.03125 -23.929688 14.921875 -23.609375 14.921875 -23.234375 L 14.921875 -22.265625 C 14.921875 -21.898438 15.03125 -21.578125 15.25 -21.296875 C 15.46875 -21.023438 15.941406 -20.890625 16.671875 -20.890625 L 17.375 -20.890625 C 17.957031 -20.890625 18.378906 -20.753906 18.640625 -20.484375 C 18.898438 -20.222656 19.03125 -19.800781 19.03125 -19.21875 L 19.03125 -14.46875 C 19.03125 -13.875 18.898438 -13.445312 18.640625 -13.1875 C 18.378906 -12.925781 17.957031 -12.796875 17.375 -12.796875 L 13.671875 -12.796875 C 12.929688 -12.796875 12.453125 -12.664062 12.234375 -12.40625 C 12.023438 -12.144531 11.921875 -11.828125 11.921875 -11.453125 L 11.921875 -10.03125 C 11.921875 -9.65625 12.023438 -9.328125 12.234375 -9.046875 C 12.453125 -8.773438 12.929688 -8.640625 13.671875 -8.640625 Z M 13.671875 -8.640625" transform="translate(162.664 163.912)"/></g></g></g><g fill="#7843E6"><g><g><path d="M 26.296875 0 L 4.84375 0 C 4.257812 0 3.835938 -0.128906 3.578125 -0.390625 C 3.316406 -0.648438 3.1875 -1.070312 3.1875 -1.65625 L 3.1875 -31.609375 C 3.1875 -32.191406 3.316406 -32.613281 3.578125 -32.875 C 3.835938 -33.132812 4.257812 -33.265625 4.84375 -33.265625 L 26.296875 -33.265625 C 26.878906 -33.265625 27.300781 -33.132812 27.5625 -32.875 C 27.820312 -32.613281 27.953125 -32.191406 27.953125 -31.609375 L 27.953125 -26.203125 C 27.953125 -25.609375 27.820312 -25.179688 27.5625 -24.921875 C 27.300781 -24.660156 26.878906 -24.53125 26.296875 -24.53125 L 13.53125 -24.53125 L 13.53125 -20.96875 L 22.546875 -20.96875 C 23.128906 -20.96875 23.550781 -20.835938 23.8125 -20.578125 C 24.070312 -20.316406 24.203125 -19.894531 24.203125 -19.3125 L 24.203125 -14.375 C 24.203125 -13.78125 24.070312 -13.351562 23.8125 -13.09375 C 23.550781 -12.832031 23.128906 -12.703125 22.546875 -12.703125 L 13.53125 -12.703125 L 13.53125 -8.734375 L 26.296875 -8.734375 C 26.878906 -8.734375 27.300781 -8.601562 27.5625 -8.34375 C 27.820312 -8.082031 27.953125 -7.65625 27.953125 -7.0625 L 27.953125 -1.65625 C 27.953125 -1.070312 27.820312 -0.648438 27.5625 -0.390625 C 27.300781 -0.128906 26.878906 0 26.296875 0 Z M 26.296875 0" transform="translate(208.456 163.912)"/></g></g></g><g fill="#7843E6"><g><g><path d="M 22.875 0 L 10.859375 0 C 10.273438 0 9.789062 -0.101562 9.40625 -0.3125 C 9.019531 -0.53125 8.71875 -0.9375 8.5 -1.53125 L 3.96875 -12.84375 C 3.695312 -13.519531 3.46875 -14.113281 3.28125 -14.625 C 3.09375 -15.132812 2.9375 -15.617188 2.8125 -16.078125 C 2.695312 -16.535156 2.613281 -17.019531 2.5625 -17.53125 C 2.519531 -18.039062 2.5 -18.664062 2.5 -19.40625 L 2.5 -31.609375 C 2.5 -32.191406 2.628906 -32.613281 2.890625 -32.875 C 3.148438 -33.132812 3.570312 -33.265625 4.15625 -33.265625 L 11.5 -33.265625 C 12.082031 -33.265625 12.53125 -33.132812 12.84375 -32.875 C 13.15625 -32.613281 13.3125 -32.191406 13.3125 -31.609375 L 13.3125 -18.84375 C 13.3125 -18.539062 13.335938 -18.234375 13.390625 -17.921875 C 13.453125 -17.617188 13.546875 -17.296875 13.671875 -16.953125 L 15.84375 -10.484375 C 15.9375 -10.179688 16.046875 -9.972656 16.171875 -9.859375 C 16.296875 -9.753906 16.476562 -9.703125 16.71875 -9.703125 L 17.234375 -9.703125 C 17.484375 -9.703125 17.664062 -9.753906 17.78125 -9.859375 C 17.90625 -9.972656 18.015625 -10.179688 18.109375 -10.484375 L 20.28125 -17 C 20.40625 -17.34375 20.5 -17.664062 20.5625 -17.96875 C 20.625 -18.28125 20.65625 -18.585938 20.65625 -18.890625 L 20.65625 -31.609375 C 20.65625 -32.191406 20.785156 -32.613281 21.046875 -32.875 C 21.304688 -33.132812 21.726562 -33.265625 22.3125 -33.265625 L 29.5625 -33.265625 C 30.15625 -33.265625 30.582031 -33.132812 30.84375 -32.875 C 31.101562 -32.613281 31.234375 -32.191406 31.234375 -31.609375 L 31.234375 -19.40625 C 31.234375 -18.664062 31.207031 -18.039062 31.15625 -17.53125 C 31.113281 -17.019531 31.03125 -16.535156 30.90625 -16.078125 C 30.78125 -15.617188 30.625 -15.132812 30.4375 -14.625 C 30.257812 -14.113281 30.03125 -13.519531 29.75 -12.84375 L 25.234375 -1.53125 C 25.015625 -0.9375 24.710938 -0.53125 24.328125 -0.3125 C 23.941406 -0.101562 23.457031 0 22.875 0 Z M 22.875 0" transform="translate(238.675 163.912)"/></g></g></g><g fill="#7843E6"><g><g><path d="M 26.296875 0 L 4.84375 0 C 4.257812 0 3.835938 -0.128906 3.578125 -0.390625 C 3.316406 -0.648438 3.1875 -1.070312 3.1875 -1.65625 L 3.1875 -31.609375 C 3.1875 -32.191406 3.316406 -32.613281 3.578125 -32.875 C 3.835938 -33.132812 4.257812 -33.265625 4.84375 -33.265625 L 26.296875 -33.265625 C 26.878906 -33.265625 27.300781 -33.132812 27.5625 -32.875 C 27.820312 -32.613281 27.953125 -32.191406 27.953125 -31.609375 L 27.953125 -26.203125 C 27.953125 -25.609375 27.820312 -25.179688 27.5625 -24.921875 C 27.300781 -24.660156 26.878906 -24.53125 26.296875 -24.53125 L 13.53125 -24.53125 L 13.53125 -20.96875 L 22.546875 -20.96875 C 23.128906 -20.96875 23.550781 -20.835938 23.8125 -20.578125 C 24.070312 -20.316406 24.203125 -19.894531 24.203125 -19.3125 L 24.203125 -14.375 C 24.203125 -13.78125 24.070312 -13.351562 23.8125 -13.09375 C 23.550781 -12.832031 23.128906 -12.703125 22.546875 -12.703125 L 13.53125 -12.703125 L 13.53125 -8.734375 L 26.296875 -8.734375 C 26.878906 -8.734375 27.300781 -8.601562 27.5625 -8.34375 C 27.820312 -8.082031 27.953125 -7.65625 27.953125 -7.0625 L 27.953125 -1.65625 C 27.953125 -1.070312 27.820312 -0.648438 27.5625 -0.390625 C 27.300781 -0.128906 26.878906 0 26.296875 0 Z M 26.296875 0" transform="translate(272.406 163.912)"/></g></g></g><g fill="#7843E6"><g><g><path d="M 11.78125 0 L 4.84375 0 C 4.257812 0 3.835938 -0.128906 3.578125 -0.390625 C 3.316406 -0.648438 3.1875 -1.070312 3.1875 -1.65625 L 3.1875 -31.609375 C 3.1875 -32.191406 3.316406 -32.613281 3.578125 -32.875 C 3.835938 -33.132812 4.257812 -33.265625 4.84375 -33.265625 L 9.65625 -33.265625 C 10.238281 -33.265625 10.738281 -33.171875 11.15625 -32.984375 C 11.570312 -32.804688 11.976562 -32.484375 12.375 -32.015625 L 21.34375 -21.765625 L 21.34375 -31.609375 C 21.34375 -32.191406 21.472656 -32.613281 21.734375 -32.875 C 21.992188 -33.132812 22.421875 -33.265625 23.015625 -33.265625 L 29.9375 -33.265625 C 30.519531 -33.265625 30.941406 -33.132812 31.203125 -32.875 C 31.472656 -32.613281 31.609375 -32.191406 31.609375 -31.609375 L 31.609375 -1.65625 C 31.609375 -1.070312 31.472656 -0.648438 31.203125 -0.390625 C 30.941406 -0.128906 30.519531 0 29.9375 0 L 23.015625 0 C 22.421875 0 21.992188 -0.128906 21.734375 -0.390625 C 21.472656 -0.648438 21.34375 -1.070312 21.34375 -1.65625 L 21.34375 -7.34375 L 13.4375 -16.90625 L 13.4375 -1.65625 C 13.4375 -1.070312 13.304688 -0.648438 13.046875 -0.390625 C 12.785156 -0.128906 12.363281 0 11.78125 0 Z M 11.78125 0" transform="translate(302.625 163.912)"/></g></g></g><g fill="#7843E6"><g><g><path d="M 18.625 0 L 4.015625 0 C 3.429688 0 3.007812 -0.128906 2.75 -0.390625 C 2.488281 -0.648438 2.359375 -1.070312 2.359375 -1.65625 L 2.359375 -7.0625 C 2.359375 -7.65625 2.488281 -8.082031 2.75 -8.34375 C 3.007812 -8.601562 3.429688 -8.734375 4.015625 -8.734375 L 16.453125 -8.734375 C 16.847656 -8.734375 17.144531 -8.863281 17.34375 -9.125 C 17.550781 -9.382812 17.65625 -9.703125 17.65625 -10.078125 C 17.65625 -10.597656 17.550781 -10.976562 17.34375 -11.21875 C 17.144531 -11.46875 16.847656 -11.609375 16.453125 -11.640625 L 9.515625 -12.609375 C 7.359375 -12.921875 5.625 -13.628906 4.3125 -14.734375 C 3.007812 -15.847656 2.359375 -17.695312 2.359375 -20.28125 L 2.359375 -25.140625 C 2.359375 -27.753906 3.203125 -29.757812 4.890625 -31.15625 C 6.585938 -32.5625 8.929688 -33.265625 11.921875 -33.265625 L 24.859375 -33.265625 C 25.441406 -33.265625 25.863281 -33.132812 26.125 -32.875 C 26.382812 -32.613281 26.515625 -32.191406 26.515625 -31.609375 L 26.515625 -26.109375 C 26.515625 -25.523438 26.382812 -25.097656 26.125 -24.828125 C 25.863281 -24.566406 25.441406 -24.4375 24.859375 -24.4375 L 14.09375 -24.4375 C 13.6875 -24.4375 13.375 -24.304688 13.15625 -24.046875 C 12.945312 -23.785156 12.84375 -23.457031 12.84375 -23.0625 C 12.84375 -22.65625 12.945312 -22.3125 13.15625 -22.03125 C 13.375 -21.757812 13.6875 -21.609375 14.09375 -21.578125 L 20.96875 -20.65625 C 23.125 -20.34375 24.863281 -19.628906 26.1875 -18.515625 C 27.519531 -17.410156 28.1875 -15.566406 28.1875 -12.984375 L 28.1875 -8.125 C 28.1875 -5.507812 27.332031 -3.5 25.625 -2.09375 C 23.914062 -0.695312 21.582031 0 18.625 0 Z M 18.625 0" transform="translate(337.42 163.912)"/></g></g></g><g clip-path="url(#R)"><path fill="#C8C8ED" d="M 230.085938 21.484375 L 182.585938 40.164062 L 135.085938 21.484375 C 135.085938 21.484375 125.585938 24.582031 125.585938 34.933594 L 174.871094 115.765625 C 183.777344 119.195312 189.976562 115.566406 189.976562 115.566406 L 239.585938 34.933594 C 239.585938 24.582031 230.085938 21.484375 230.085938 21.484375 Z M 230.085938 21.484375"/></g><g clip-path="url(#S)"><path fill="#FF5478" d="M 173.050781 47.304688 L 131.832031 31.285156 C 131.832031 31.285156 125.585938 28.136719 125.585938 35.046875 C 125.585938 50.757812 125.585938 80.742188 125.585938 85.609375 C 125.585938 92.253906 131.90625 94.730469 131.90625 94.730469 L 173.011719 115.101562 C 173.011719 115.101562 179.417969 118.566406 179.417969 109.847656 C 179.417969 103.371094 179.417969 66.226562 179.417969 57.167969 C 179.421875 49.199219 173.050781 47.304688 173.050781 47.304688 Z M 173.050781 47.304688"/></g><g clip-path="url(#T)"><path fill="#15AAEA" d="M 192.125 47.070312 L 233.34375 31.046875 C 233.34375 31.046875 239.589844 27.898438 239.589844 34.808594 C 239.589844 50.519531 239.589844 80.507812 239.589844 85.375 C 239.589844 92.015625 233.273438 94.496094 233.273438 94.496094 L 192.167969 114.867188 C 192.167969 114.867188 185.761719 118.328125 185.761719 109.613281 C 185.761719 103.132812 185.761719 65.988281 185.761719 56.933594 C 185.753906 48.964844 192.125 47.070312 192.125 47.070312 Z M 192.125 47.070312"/></g><path fill="#CB6CE6" d="M 229.992188 21.441406 C 216.726562 15.722656 193.640625 6.25 188.878906 4.429688 C 186.613281 3.5625 184.472656 3.300781 182.585938 3.3125 L 182.585938 3.308594 C 180.703125 3.300781 178.5625 3.558594 176.296875 4.425781 C 171.535156 6.246094 148.449219 15.71875 135.183594 21.441406 C 129.214844 24.015625 135.28125 25.839844 135.28125 25.839844 L 176.207031 41.746094 C 176.207031 41.746094 178.714844 43 182.585938 42.964844 L 182.585938 42.96875 C 186.460938 43.007812 188.96875 41.75 188.96875 41.75 L 229.894531 25.84375 C 229.890625 25.839844 235.957031 24.019531 229.992188 21.441406 Z M 229.992188 21.441406"/><path fill="#FFF" d="M 192.085938 22.300781 C 192.085938 22.613281 192.027344 22.921875 191.90625 23.226562 C 191.78125 23.53125 191.601562 23.828125 191.363281 24.117188 C 191.125 24.40625 190.832031 24.679688 190.484375 24.9375 C 190.140625 25.195312 189.746094 25.4375 189.304688 25.65625 C 188.863281 25.878906 188.382812 26.074219 187.863281 26.246094 C 187.347656 26.421875 186.800781 26.566406 186.222656 26.6875 C 185.644531 26.804688 185.050781 26.894531 184.441406 26.957031 C 183.828125 27.015625 183.210938 27.046875 182.585938 27.046875 C 181.964844 27.046875 181.34375 27.015625 180.734375 26.957031 C 180.121094 26.894531 179.527344 26.804688 178.953125 26.6875 C 178.375 26.566406 177.828125 26.421875 177.308594 26.246094 C 176.789062 26.074219 176.3125 25.878906 175.871094 25.65625 C 175.429688 25.4375 175.035156 25.195312 174.6875 24.9375 C 174.339844 24.679688 174.050781 24.40625 173.808594 24.117188 C 173.570312 23.828125 173.390625 23.53125 173.269531 23.226562 C 173.148438 22.921875 173.085938 22.613281 173.085938 22.300781 C 173.085938 21.988281 173.148438 21.679688 173.269531 21.375 C 173.390625 21.066406 173.570312 20.769531 173.808594 20.484375 C 174.050781 20.195312 174.339844 19.921875 174.6875 19.664062 C 175.035156 19.402344 175.429688 19.164062 175.871094 18.945312 C 176.3125 18.722656 176.789062 18.527344 177.308594 18.351562 C 177.828125 18.179688 178.375 18.035156 178.953125 17.914062 C 179.527344 17.796875 180.121094 17.703125 180.734375 17.644531 C 181.34375 17.582031 181.964844 17.554688 182.585938 17.554688 C 183.210938 17.554688 183.828125 17.582031 184.441406 17.644531 C 185.050781 17.703125 185.644531 17.796875 186.222656 17.914062 C 186.800781 18.035156 187.347656 18.179688 187.863281 18.351562 C 188.382812 18.527344 188.863281 18.722656 189.304688 18.945312 C 189.746094 19.164062 190.140625 19.402344 190.484375 19.664062 C 190.832031 19.921875 191.125 20.195312 191.363281 20.484375 C 191.601562 20.769531 191.78125 21.066406 191.90625 21.375 C 192.027344 21.679688 192.085938 21.988281 192.085938 22.300781 Z M 192.085938 22.300781"/><path fill="#FFF" d="M 133.503906 77.164062 C 135.429688 73.90625 139.367188 73.621094 142.277344 76.523438 C 145.195312 79.429688 145.996094 84.429688 144.0625 87.695312 C 142.132812 90.957031 138.199219 91.242188 135.285156 88.335938 C 132.367188 85.425781 131.570312 80.429688 133.503906 77.164062 Z M 133.503906 77.164062"/><path fill="#FFF" d="M 147.226562 65.300781 C 149.152344 62.039062 153.089844 61.753906 156 64.660156 C 158.917969 67.566406 159.71875 72.566406 157.785156 75.832031 C 155.855469 79.089844 151.925781 79.375 149.011719 76.472656 C 146.089844 73.558594 145.296875 68.566406 147.226562 65.300781 Z M 147.226562 65.300781"/><path fill="#FFF" d="M 161.476562 53.429688 C 163.398438 50.167969 167.335938 49.882812 170.246094 52.789062 C 173.167969 55.695312 173.96875 60.695312 172.03125 63.960938 C 170.105469 67.21875 166.171875 67.503906 163.257812 64.601562 C 160.339844 61.6875 159.542969 56.695312 161.476562 53.429688 Z M 161.476562 53.429688"/><path fill="#FFF" d="M 230.222656 72.550781 C 228.296875 69.289062 224.363281 69.003906 221.453125 71.910156 C 218.53125 74.816406 217.730469 79.816406 219.664062 83.082031 C 221.59375 86.339844 225.527344 86.625 228.441406 83.722656 C 231.359375 80.808594 232.15625 75.816406 230.222656 72.550781 Z M 230.222656 72.550781"/><path fill="#FFF" d="M 213.070312 57.257812 C 211.144531 54 207.207031 53.714844 204.296875 56.617188 C 201.378906 59.523438 200.578125 64.523438 202.511719 67.789062 C 204.441406 71.050781 208.375 71.335938 211.285156 68.429688 C 214.207031 65.519531 215 60.523438 213.070312 57.257812 Z M 213.070312 57.257812"/></svg>