<svg xmlns="http://www.w3.org/2000/svg" xmlns:xlink="http://www.w3.org/1999/xlink" width="375" viewBox="0 0 375 187.5" height="187.5" version="1.0"><defs><clipPath id="a"><path d="M 1 64.160156 L 374 64.160156 L 374 181.597656 L 1 181.597656 Z M 1 64.160156"/></clipPath><clipPath id="b"><path d="M 314.011719 181.597656 L 60.140625 181.597656 C 44.605469 181.597656 30.019531 175.585938 18.921875 164.820312 C 7.824219 153.953125 1.585938 139.5 1.269531 124.09375 C 0.953125 108.371094 6.871094 93.496094 18.074219 82.203125 C 29.277344 70.703125 44.921875 64.160156 60.984375 64.160156 L 314.859375 64.160156 C 330.394531 64.160156 344.980469 70.175781 356.078125 80.9375 C 367.175781 91.808594 373.414062 106.261719 373.730469 121.667969 C 374.046875 137.386719 368.128906 152.265625 356.925781 163.554688 C 345.722656 175.058594 330.078125 181.597656 314.011719 181.597656 Z M 60.988281 81.042969 C 49.253906 81.042969 38.261719 85.6875 30.125 94.023438 C 22.195312 102.042969 17.96875 112.59375 18.179688 123.777344 C 18.605469 146.355469 37.417969 164.820312 60.140625 164.820312 L 314.011719 164.820312 C 325.746094 164.820312 336.738281 160.179688 344.875 151.84375 C 352.804688 143.824219 357.03125 133.167969 356.820312 122.089844 C 356.394531 99.402344 337.582031 81.042969 314.964844 81.042969 L 60.984375 81.042969 Z M 60.988281 81.042969"/></clipPath><clipPath id="d"><path d="M 215 41 L 241 41 L 241 67 L 215 67 Z M 215 41"/></clipPath><clipPath id="e"><path d="M 220.1875 38.625 L 241.152344 50.179688 L 230.683594 69.175781 L 209.71875 57.625 Z M 220.1875 38.625"/></clipPath><clipPath id="f"><path d="M 220.1875 38.625 L 241.152344 50.179688 L 230.683594 69.175781 L 209.71875 57.625 Z M 220.1875 38.625"/></clipPath><clipPath id="g"><path d="M 217 41 L 225 41 L 225 45 L 217 45 Z M 217 41"/></clipPath><clipPath id="h"><path d="M 220.1875 38.625 L 241.152344 50.179688 L 230.683594 69.175781 L 209.71875 57.625 Z M 220.1875 38.625"/></clipPath><clipPath id="i"><path d="M 220.1875 38.625 L 241.152344 50.179688 L 230.683594 69.175781 L 209.71875 57.625 Z M 220.1875 38.625"/></clipPath><clipPath id="j"><path d="M 226 62 L 235 62 L 235 67 L 226 67 Z M 226 62"/></clipPath><clipPath id="k"><path d="M 220.1875 38.625 L 241.152344 50.179688 L 230.683594 69.175781 L 209.71875 57.625 Z M 220.1875 38.625"/></clipPath><clipPath id="l"><path d="M 220.1875 38.625 L 241.152344 50.179688 L 230.683594 69.175781 L 209.71875 57.625 Z M 220.1875 38.625"/></clipPath><clipPath id="m"><path d="M 210 41 L 236 41 L 236 67 L 210 67 Z M 210 41"/></clipPath><clipPath id="n"><path d="M 220.1875 38.625 L 241.152344 50.179688 L 230.683594 69.175781 L 209.71875 57.625 Z M 220.1875 38.625"/></clipPath><clipPath id="o"><path d="M 220.1875 38.625 L 241.152344 50.179688 L 230.683594 69.175781 L 209.71875 57.625 Z M 220.1875 38.625"/></clipPath><clipPath id="p"><path d="M 221 52 L 225 52 L 225 56 L 221 56 Z M 221 52"/></clipPath><clipPath id="q"><path d="M 220.1875 38.625 L 241.152344 50.179688 L 230.683594 69.175781 L 209.71875 57.625 Z M 220.1875 38.625"/></clipPath><clipPath id="r"><path d="M 220.1875 38.625 L 241.152344 50.179688 L 230.683594 69.175781 L 209.71875 57.625 Z M 220.1875 38.625"/></clipPath><clipPath id="s"><path d="M 218 45 L 222 45 L 222 48 L 218 48 Z M 218 45"/></clipPath><clipPath id="t"><path d="M 220.1875 38.625 L 241.152344 50.179688 L 230.683594 69.175781 L 209.71875 57.625 Z M 220.1875 38.625"/></clipPath><clipPath id="u"><path d="M 220.1875 38.625 L 241.152344 50.179688 L 230.683594 69.175781 L 209.71875 57.625 Z M 220.1875 38.625"/></clipPath><clipPath id="v"><path d="M 229 50 L 233 50 L 233 54 L 229 54 Z M 229 50"/></clipPath><clipPath id="w"><path d="M 220.1875 38.625 L 241.152344 50.179688 L 230.683594 69.175781 L 209.71875 57.625 Z M 220.1875 38.625"/></clipPath><clipPath id="x"><path d="M 220.1875 38.625 L 241.152344 50.179688 L 230.683594 69.175781 L 209.71875 57.625 Z M 220.1875 38.625"/></clipPath><clipPath id="y"><path d="M 213 54 L 217 54 L 217 58 L 213 58 Z M 213 54"/></clipPath><clipPath id="z"><path d="M 220.1875 38.625 L 241.152344 50.179688 L 230.683594 69.175781 L 209.71875 57.625 Z M 220.1875 38.625"/></clipPath><clipPath id="A"><path d="M 220.1875 38.625 L 241.152344 50.179688 L 230.683594 69.175781 L 209.71875 57.625 Z M 220.1875 38.625"/></clipPath><clipPath id="B"><path d="M 224 60 L 227 60 L 227 64 L 224 64 Z M 224 60"/></clipPath><clipPath id="C"><path d="M 220.1875 38.625 L 241.152344 50.179688 L 230.683594 69.175781 L 209.71875 57.625 Z M 220.1875 38.625"/></clipPath><clipPath id="D"><path d="M 220.1875 38.625 L 241.152344 50.179688 L 230.683594 69.175781 L 209.71875 57.625 Z M 220.1875 38.625"/></clipPath><clipPath id="E"><path d="M 233 57 L 235 57 L 235 60 L 233 60 Z M 233 57"/></clipPath><clipPath id="F"><path d="M 220.1875 38.625 L 241.152344 50.179688 L 230.683594 69.175781 L 209.71875 57.625 Z M 220.1875 38.625"/></clipPath><clipPath id="G"><path d="M 220.1875 38.625 L 241.152344 50.179688 L 230.683594 69.175781 L 209.71875 57.625 Z M 220.1875 38.625"/></clipPath><clipPath id="H"><path d="M 133.6875 14 L 218.214844 14 L 218.214844 86 L 133.6875 86 Z M 133.6875 14"/></clipPath><clipPath id="I"><path d="M 133.6875 21 L 174 21 L 174 85 L 133.6875 85 Z M 133.6875 21"/></clipPath><clipPath id="J"><path d="M 178 21 L 218.214844 21 L 218.214844 85 L 178 85 Z M 178 21"/></clipPath><linearGradient x1="-.3" gradientTransform="matrix(1.05692 0 0 1.05514 1.27 64.162)" xmlns:xlink="http://www.w3.org/1999/xlink" y1="55.666" x2="352.7" gradientUnits="userSpaceOnUse" y2="55.666" xlink:type="simple" xlink:actuate="onLoad" id="c" xlink:show="other"><stop stop-color="#ED008C" offset="0"/><stop stop-color="#EC008C" offset=".004"/><stop stop-color="#EB018D" offset=".008"/><stop stop-color="#EA018D" offset=".012"/><stop stop-color="#E9028E" offset=".016"/><stop stop-color="#E8028E" offset=".02"/><stop stop-color="#E8028F" offset=".023"/><stop stop-color="#E7038F" offset=".027"/><stop stop-color="#E6038F" offset=".031"/><stop stop-color="#E50490" offset=".035"/><stop stop-color="#E40490" offset=".039"/><stop stop-color="#E30591" offset=".043"/><stop stop-color="#E20591" offset=".047"/><stop stop-color="#E10592" offset=".051"/><stop stop-color="#E00692" offset=".055"/><stop stop-color="#DF0693" offset=".059"/><stop stop-color="#DE0793" offset=".063"/><stop stop-color="#DD0794" offset=".066"/><stop stop-color="#DC0894" offset=".07"/><stop stop-color="#DB0894" offset=".074"/><stop stop-color="#DB0995" offset=".078"/><stop stop-color="#DA0995" offset=".082"/><stop stop-color="#D90996" offset=".086"/><stop stop-color="#D80A96" offset=".09"/><stop stop-color="#D70A97" offset=".094"/><stop stop-color="#D60B97" offset=".098"/><stop stop-color="#D50B98" offset=".102"/><stop stop-color="#D40C98" offset=".105"/><stop stop-color="#D30C98" offset=".109"/><stop stop-color="#D20C99" offset=".113"/><stop stop-color="#D10D99" offset=".117"/><stop stop-color="#D00D9A" offset=".121"/><stop stop-color="#CF0E9A" offset=".125"/><stop stop-color="#CF0E9B" offset=".129"/><stop stop-color="#CE0F9B" offset=".133"/><stop stop-color="#CD0F9C" offset=".137"/><stop stop-color="#CC0F9C" offset=".141"/><stop stop-color="#CB109D" offset=".145"/><stop stop-color="#CA109D" offset=".148"/><stop stop-color="#C9119D" offset=".152"/><stop stop-color="#C8119E" offset=".156"/><stop stop-color="#C7129E" offset=".16"/><stop stop-color="#C6129F" offset=".164"/><stop stop-color="#C5129F" offset=".168"/><stop stop-color="#C413A0" offset=".172"/><stop stop-color="#C313A0" offset=".176"/><stop stop-color="#C214A1" offset=".18"/><stop stop-color="#C214A1" offset=".184"/><stop stop-color="#C115A1" offset=".188"/><stop stop-color="#C015A2" offset=".191"/><stop stop-color="#BF15A2" offset=".195"/><stop stop-color="#BE16A3" offset=".199"/><stop stop-color="#BD16A3" offset=".203"/><stop stop-color="#BC17A4" offset=".207"/><stop stop-color="#BB17A4" offset=".211"/><stop stop-color="#BA18A5" offset=".215"/><stop stop-color="#B918A5" offset=".219"/><stop stop-color="#B818A6" offset=".223"/><stop stop-color="#B719A6" offset=".227"/><stop stop-color="#B619A6" offset=".23"/><stop stop-color="#B51AA7" offset=".234"/><stop stop-color="#B51AA7" offset=".238"/><stop stop-color="#B41BA8" offset=".242"/><stop stop-color="#B31BA8" offset=".246"/><stop stop-color="#B21BA9" offset=".25"/><stop stop-color="#B11CA9" offset=".254"/><stop stop-color="#B01CAA" offset=".258"/><stop stop-color="#AF1DAA" offset=".262"/><stop stop-color="#AE1DAA" offset=".266"/><stop stop-color="#AD1EAB" offset=".27"/><stop stop-color="#AC1EAB" offset=".273"/><stop stop-color="#AB1EAC" offset=".277"/><stop stop-color="#AA1FAC" offset=".281"/><stop stop-color="#A91FAD" offset=".285"/><stop stop-color="#A920AD" offset=".289"/><stop stop-color="#A820AE" offset=".293"/><stop stop-color="#A721AE" offset=".297"/><stop stop-color="#A621AF" offset=".301"/><stop stop-color="#A521AF" offset=".305"/><stop stop-color="#A422AF" offset=".309"/><stop stop-color="#A322B0" offset=".313"/><stop stop-color="#A223B0" offset=".316"/><stop stop-color="#A123B1" offset=".32"/><stop stop-color="#A024B1" offset=".324"/><stop stop-color="#9F24B2" offset=".328"/><stop stop-color="#9E24B2" offset=".332"/><stop stop-color="#9D25B3" offset=".336"/><stop stop-color="#9C25B3" offset=".34"/><stop stop-color="#9C26B3" offset=".344"/><stop stop-color="#9B26B4" offset=".348"/><stop stop-color="#9A27B4" offset=".352"/><stop stop-color="#9927B5" offset=".355"/><stop stop-color="#9827B5" offset=".359"/><stop stop-color="#9728B6" offset=".363"/><stop stop-color="#9628B6" offset=".367"/><stop stop-color="#9529B7" offset=".371"/><stop stop-color="#9429B7" offset=".375"/><stop stop-color="#932AB8" offset=".379"/><stop stop-color="#922AB8" offset=".383"/><stop stop-color="#912AB8" offset=".387"/><stop stop-color="#902BB9" offset=".391"/><stop stop-color="#8F2BB9" offset=".395"/><stop stop-color="#8F2CBA" offset=".398"/><stop stop-color="#8E2CBA" offset=".402"/><stop stop-color="#8D2DBB" offset=".406"/><stop stop-color="#8C2DBB" offset=".41"/><stop stop-color="#8B2DBC" offset=".414"/><stop stop-color="#8A2EBC" offset=".418"/><stop stop-color="#892EBC" offset=".422"/><stop stop-color="#882FBD" offset=".426"/><stop stop-color="#872FBD" offset=".43"/><stop stop-color="#8630BE" offset=".434"/><stop stop-color="#8530BE" offset=".438"/><stop stop-color="#8430BF" offset=".441"/><stop stop-color="#8331BF" offset=".445"/><stop stop-color="#8331C0" offset=".449"/><stop stop-color="#8232C0" offset=".453"/><stop stop-color="#8132C1" offset=".457"/><stop stop-color="#8033C1" offset=".461"/><stop stop-color="#7F33C1" offset=".465"/><stop stop-color="#7E34C2" offset=".469"/><stop stop-color="#7D34C2" offset=".473"/><stop stop-color="#7C34C3" offset=".477"/><stop stop-color="#7B35C3" offset=".48"/><stop stop-color="#7A35C4" offset=".484"/><stop stop-color="#7936C4" offset=".488"/><stop stop-color="#7836C5" offset=".492"/><stop stop-color="#7737C5" offset=".496"/><stop stop-color="#7637C5" offset=".5"/><stop stop-color="#7637C6" offset=".504"/><stop stop-color="#7538C6" offset=".508"/><stop stop-color="#7438C7" offset=".512"/><stop stop-color="#7339C7" offset=".516"/><stop stop-color="#7239C8" offset=".52"/><stop stop-color="#713AC8" offset=".523"/><stop stop-color="#703AC9" offset=".527"/><stop stop-color="#6F3AC9" offset=".531"/><stop stop-color="#6E3BCA" offset=".535"/><stop stop-color="#6D3BCA" offset=".539"/><stop stop-color="#6C3CCA" offset=".543"/><stop stop-color="#6B3CCB" offset=".547"/><stop stop-color="#6A3DCB" offset=".551"/><stop stop-color="#693DCC" offset=".555"/><stop stop-color="#693DCC" offset=".559"/><stop stop-color="#683ECD" offset=".563"/><stop stop-color="#673ECD" offset=".566"/><stop stop-color="#663FCE" offset=".57"/><stop stop-color="#653FCE" offset=".574"/><stop stop-color="#6440CE" offset=".578"/><stop stop-color="#6340CF" offset=".582"/><stop stop-color="#6240CF" offset=".586"/><stop stop-color="#6141D0" offset=".59"/><stop stop-color="#6041D0" offset=".594"/><stop stop-color="#5F42D1" offset=".598"/><stop stop-color="#5E42D1" offset=".602"/><stop stop-color="#5D43D2" offset=".605"/><stop stop-color="#5D43D2" offset=".609"/><stop stop-color="#5C43D3" offset=".613"/><stop stop-color="#5B44D3" offset=".617"/><stop stop-color="#5A44D3" offset=".621"/><stop stop-color="#5945D4" offset=".625"/><stop stop-color="#5845D4" offset=".629"/><stop stop-color="#5746D5" offset=".633"/><stop stop-color="#5646D5" offset=".637"/><stop stop-color="#5546D6" offset=".641"/><stop stop-color="#5447D6" offset=".645"/><stop stop-color="#5347D7" offset=".648"/><stop stop-color="#5248D7" offset=".652"/><stop stop-color="#5148D7" offset=".656"/><stop stop-color="#5049D8" offset=".66"/><stop stop-color="#5049D8" offset=".664"/><stop stop-color="#4F49D9" offset=".668"/><stop stop-color="#4E4AD9" offset=".672"/><stop stop-color="#4D4ADA" offset=".676"/><stop stop-color="#4C4BDA" offset=".68"/><stop stop-color="#4B4BDB" offset=".684"/><stop stop-color="#4A4CDB" offset=".688"/><stop stop-color="#494CDC" offset=".691"/><stop stop-color="#484CDC" offset=".695"/><stop stop-color="#474DDC" offset=".699"/><stop stop-color="#464DDD" offset=".703"/><stop stop-color="#454EDD" offset=".707"/><stop stop-color="#444EDE" offset=".711"/><stop stop-color="#434FDE" offset=".715"/><stop stop-color="#434FDF" offset=".719"/><stop stop-color="#424FDF" offset=".723"/><stop stop-color="#4150E0" offset=".727"/><stop stop-color="#4050E0" offset=".73"/><stop stop-color="#3F51E0" offset=".734"/><stop stop-color="#3E51E1" offset=".738"/><stop stop-color="#3D52E1" offset=".742"/><stop stop-color="#3C52E2" offset=".746"/><stop stop-color="#3B52E2" offset=".75"/><stop stop-color="#3A53E3" offset=".754"/><stop stop-color="#3953E3" offset=".758"/><stop stop-color="#3854E4" offset=".762"/><stop stop-color="#3754E4" offset=".766"/><stop stop-color="#3755E5" offset=".77"/><stop stop-color="#3655E5" offset=".773"/><stop stop-color="#3555E5" offset=".777"/><stop stop-color="#3456E6" offset=".781"/><stop stop-color="#3356E6" offset=".785"/><stop stop-color="#3257E7" offset=".789"/><stop stop-color="#3157E7" offset=".793"/><stop stop-color="#3058E8" offset=".797"/><stop stop-color="#2F58E8" offset=".801"/><stop stop-color="#2E58E9" offset=".805"/><stop stop-color="#2D59E9" offset=".809"/><stop stop-color="#2C59E9" offset=".813"/><stop stop-color="#2B5AEA" offset=".816"/><stop stop-color="#2A5AEA" offset=".82"/><stop stop-color="#2A5BEB" offset=".824"/><stop stop-color="#295BEB" offset=".828"/><stop stop-color="#285BEC" offset=".832"/><stop stop-color="#275CEC" offset=".836"/><stop stop-color="#265CED" offset=".84"/><stop stop-color="#255DED" offset=".844"/><stop stop-color="#245DEE" offset=".848"/><stop stop-color="#235EEE" offset=".852"/><stop stop-color="#225EEE" offset=".855"/><stop stop-color="#215FEF" offset=".859"/><stop stop-color="#205FEF" offset=".863"/><stop stop-color="#1F5FF0" offset=".867"/><stop stop-color="#1E60F0" offset=".871"/><stop stop-color="#1D60F1" offset=".875"/><stop stop-color="#1D61F1" offset=".879"/><stop stop-color="#1C61F2" offset=".883"/><stop stop-color="#1B62F2" offset=".887"/><stop stop-color="#1A62F2" offset=".891"/><stop stop-color="#1962F3" offset=".895"/><stop stop-color="#1863F3" offset=".898"/><stop stop-color="#1763F4" offset=".902"/><stop stop-color="#1664F4" offset=".906"/><stop stop-color="#1564F5" offset=".91"/><stop stop-color="#1465F5" offset=".914"/><stop stop-color="#1365F6" offset=".918"/><stop stop-color="#1265F6" offset=".922"/><stop stop-color="#1166F7" offset=".926"/><stop stop-color="#1166F7" offset=".93"/><stop stop-color="#1067F7" offset=".934"/><stop stop-color="#0F67F8" offset=".938"/><stop stop-color="#0E68F8" offset=".941"/><stop stop-color="#0D68F9" offset=".945"/><stop stop-color="#0C68F9" offset=".949"/><stop stop-color="#0B69FA" offset=".953"/><stop stop-color="#0A69FA" offset=".957"/><stop stop-color="#096AFB" offset=".961"/><stop stop-color="#086AFB" offset=".965"/><stop stop-color="#076BFB" offset=".969"/><stop stop-color="#066BFC" offset=".973"/><stop stop-color="#056BFC" offset=".977"/><stop stop-color="#046CFD" offset=".98"/><stop stop-color="#046CFD" offset=".984"/><stop stop-color="#036DFE" offset=".988"/><stop stop-color="#026DFE" offset=".992"/><stop stop-color="#016EFF" offset=".996"/><stop stop-color="#006EFF" offset="1"/></linearGradient></defs><g clip-path="url(#a)"><g clip-path="url(#b)"><path fill="url(#c)" d="M 0.953125 64.160156 L 0.953125 181.597656 L 374.046875 181.597656 L 374.046875 64.160156 Z M 0.953125 64.160156"/></g></g><g clip-path="url(#d)"><g clip-path="url(#e)"><g clip-path="url(#f)"><path fill="#FF66C4" d="M 229.804688 66.027344 L 216.148438 58.5 C 215.105469 57.925781 214.710938 56.628906 215.269531 55.617188 L 222.574219 42.351562 C 223.132812 41.339844 224.445312 40.980469 225.488281 41.554688 L 239.140625 49.078125 C 240.183594 49.652344 240.582031 50.953125 240.023438 51.964844 L 232.714844 65.226562 C 232.160156 66.242188 230.847656 66.601562 229.804688 66.027344 Z M 229.804688 66.027344"/></g></g></g><g clip-path="url(#g)"><g clip-path="url(#h)"><g clip-path="url(#i)"><path fill="#FF66C4" d="M 217.019531 44.953125 L 217.921875 43.316406 C 217.921875 43.316406 218.664062 41.6875 219.535156 41.472656 C 220.40625 41.257812 224.542969 41.28125 224.542969 41.28125 L 222.222656 44.867188 Z M 217.019531 44.953125"/></g></g></g><g clip-path="url(#j)"><g clip-path="url(#k)"><g clip-path="url(#l)"><path fill="#FF66C4" d="M 234.050781 62.785156 L 233.148438 64.421875 C 233.148438 64.421875 232.40625 66.050781 231.53125 66.265625 C 230.660156 66.480469 226.527344 66.457031 226.527344 66.457031 L 228.847656 62.871094 Z M 234.050781 62.785156"/></g></g></g><g clip-path="url(#m)"><g clip-path="url(#n)"><g clip-path="url(#o)"><path fill="#CB6CE6" d="M 225.273438 66.199219 L 211.617188 58.675781 C 210.574219 58.097656 210.175781 56.800781 210.734375 55.789062 L 218.042969 42.523438 C 218.601562 41.511719 219.910156 41.152344 220.953125 41.726562 L 234.609375 49.25 C 235.652344 49.824219 236.046875 51.125 235.492188 52.136719 L 228.183594 65.398438 C 227.625 66.414062 226.316406 66.773438 225.273438 66.199219 Z M 225.273438 66.199219"/></g></g></g><g clip-path="url(#p)"><g clip-path="url(#q)"><g clip-path="url(#r)"><path fill="#FFF" d="M 224.363281 54.652344 C 224.273438 54.8125 224.15625 54.949219 224.011719 55.0625 C 223.867188 55.175781 223.703125 55.257812 223.523438 55.308594 C 223.34375 55.355469 223.160156 55.371094 222.972656 55.347656 C 222.785156 55.324219 222.609375 55.269531 222.445312 55.175781 C 222.277344 55.085938 222.136719 54.964844 222.015625 54.820312 C 221.898438 54.675781 221.808594 54.511719 221.757812 54.332031 C 221.703125 54.15625 221.683594 53.972656 221.703125 53.789062 C 221.71875 53.605469 221.773438 53.433594 221.863281 53.273438 C 221.953125 53.113281 222.070312 52.976562 222.214844 52.863281 C 222.359375 52.746094 222.523438 52.667969 222.703125 52.617188 C 222.882812 52.566406 223.066406 52.554688 223.253906 52.578125 C 223.4375 52.601562 223.617188 52.65625 223.78125 52.75 C 223.945312 52.839844 224.089844 52.957031 224.207031 53.105469 C 224.328125 53.25 224.414062 53.414062 224.46875 53.589844 C 224.523438 53.769531 224.542969 53.949219 224.523438 54.132812 C 224.503906 54.316406 224.449219 54.488281 224.363281 54.652344 Z M 224.363281 54.652344"/></g></g></g><g clip-path="url(#s)"><g clip-path="url(#t)"><g clip-path="url(#u)"><path fill="#FFF" d="M 221.582031 47.085938 C 221.496094 47.246094 221.378906 47.382812 221.230469 47.496094 C 221.085938 47.613281 220.925781 47.691406 220.746094 47.742188 C 220.566406 47.792969 220.382812 47.804688 220.195312 47.78125 C 220.007812 47.757812 219.832031 47.703125 219.664062 47.609375 C 219.5 47.519531 219.355469 47.402344 219.238281 47.253906 C 219.117188 47.109375 219.03125 46.945312 218.976562 46.769531 C 218.921875 46.589844 218.90625 46.410156 218.921875 46.226562 C 218.941406 46.042969 218.996094 45.871094 219.082031 45.707031 C 219.171875 45.546875 219.289062 45.410156 219.433594 45.296875 C 219.582031 45.183594 219.742188 45.101562 219.921875 45.050781 C 220.101562 45.003906 220.285156 44.988281 220.472656 45.011719 C 220.660156 45.035156 220.835938 45.09375 221.003906 45.183594 C 221.167969 45.273438 221.3125 45.394531 221.429688 45.539062 C 221.550781 45.683594 221.636719 45.847656 221.691406 46.027344 C 221.746094 46.203125 221.761719 46.386719 221.746094 46.570312 C 221.726562 46.753906 221.671875 46.925781 221.582031 47.085938 Z M 221.582031 47.085938"/></g></g></g><g clip-path="url(#v)"><g clip-path="url(#w)"><g clip-path="url(#x)"><path fill="#FFF" d="M 232.222656 52.949219 C 232.132812 53.109375 232.015625 53.246094 231.871094 53.359375 C 231.726562 53.472656 231.5625 53.554688 231.382812 53.605469 C 231.203125 53.652344 231.019531 53.667969 230.832031 53.644531 C 230.644531 53.621094 230.46875 53.5625 230.304688 53.472656 C 230.136719 53.382812 229.996094 53.261719 229.875 53.117188 C 229.757812 52.972656 229.671875 52.808594 229.617188 52.628906 C 229.5625 52.453125 229.542969 52.269531 229.5625 52.085938 C 229.582031 51.902344 229.632812 51.730469 229.722656 51.570312 C 229.8125 51.410156 229.929688 51.273438 230.074219 51.160156 C 230.21875 51.042969 230.382812 50.964844 230.5625 50.914062 C 230.742188 50.863281 230.925781 50.851562 231.113281 50.875 C 231.300781 50.898438 231.476562 50.953125 231.640625 51.046875 C 231.808594 51.136719 231.949219 51.253906 232.070312 51.402344 C 232.1875 51.546875 232.273438 51.710938 232.328125 51.886719 C 232.382812 52.066406 232.402344 52.246094 232.382812 52.429688 C 232.363281 52.613281 232.3125 52.785156 232.222656 52.949219 Z M 232.222656 52.949219"/></g></g></g><g clip-path="url(#y)"><g clip-path="url(#z)"><g clip-path="url(#A)"><path fill="#FFF" d="M 216.171875 56.933594 C 216.082031 57.09375 215.964844 57.230469 215.820312 57.34375 C 215.675781 57.457031 215.511719 57.539062 215.332031 57.589844 C 215.152344 57.636719 214.96875 57.652344 214.78125 57.628906 C 214.59375 57.605469 214.417969 57.546875 214.253906 57.457031 C 214.085938 57.367188 213.945312 57.246094 213.824219 57.101562 C 213.707031 56.957031 213.621094 56.792969 213.566406 56.613281 C 213.511719 56.4375 213.492188 56.253906 213.511719 56.070312 C 213.53125 55.886719 213.582031 55.714844 213.671875 55.554688 C 213.761719 55.394531 213.878906 55.257812 214.023438 55.144531 C 214.167969 55.027344 214.332031 54.949219 214.511719 54.898438 C 214.691406 54.847656 214.875 54.835938 215.0625 54.859375 C 215.25 54.882812 215.425781 54.9375 215.589844 55.03125 C 215.757812 55.121094 215.898438 55.238281 216.019531 55.386719 C 216.136719 55.53125 216.222656 55.695312 216.277344 55.871094 C 216.332031 56.050781 216.351562 56.230469 216.332031 56.414062 C 216.3125 56.597656 216.261719 56.769531 216.171875 56.933594 Z M 216.171875 56.933594"/></g></g></g><g clip-path="url(#B)"><g clip-path="url(#C)"><g clip-path="url(#D)"><path fill="#FFF" d="M 226.808594 62.792969 C 226.722656 62.953125 226.605469 63.09375 226.460938 63.207031 C 226.3125 63.320312 226.152344 63.402344 225.972656 63.449219 C 225.792969 63.5 225.609375 63.511719 225.421875 63.488281 C 225.234375 63.46875 225.058594 63.410156 224.890625 63.320312 C 224.726562 63.226562 224.582031 63.109375 224.464844 62.964844 C 224.34375 62.816406 224.257812 62.65625 224.203125 62.476562 C 224.148438 62.296875 224.132812 62.117188 224.148438 61.933594 C 224.167969 61.75 224.222656 61.578125 224.3125 61.417969 C 224.398438 61.253906 224.515625 61.117188 224.660156 61.003906 C 224.808594 60.890625 224.96875 60.808594 225.148438 60.757812 C 225.328125 60.710938 225.511719 60.695312 225.699219 60.71875 C 225.886719 60.742188 226.0625 60.800781 226.230469 60.890625 C 226.394531 60.980469 226.539062 61.101562 226.65625 61.246094 C 226.777344 61.394531 226.863281 61.554688 226.917969 61.734375 C 226.972656 61.910156 226.988281 62.09375 226.972656 62.277344 C 226.953125 62.460938 226.898438 62.632812 226.808594 62.792969 Z M 226.808594 62.792969"/></g></g></g><g clip-path="url(#E)"><g clip-path="url(#F)"><g clip-path="url(#G)"><path fill="#FFF" d="M 234.703125 58.765625 C 234.617188 58.929688 234.515625 59.074219 234.398438 59.203125 C 234.28125 59.332031 234.160156 59.4375 234.035156 59.515625 C 233.910156 59.597656 233.789062 59.644531 233.671875 59.660156 C 233.554688 59.675781 233.453125 59.660156 233.363281 59.609375 C 233.273438 59.5625 233.207031 59.484375 233.15625 59.375 C 233.109375 59.269531 233.085938 59.140625 233.085938 58.992188 C 233.085938 58.84375 233.109375 58.6875 233.15625 58.519531 C 233.203125 58.351562 233.273438 58.1875 233.359375 58.027344 C 233.449219 57.867188 233.550781 57.71875 233.667969 57.589844 C 233.785156 57.460938 233.90625 57.355469 234.03125 57.277344 C 234.15625 57.199219 234.277344 57.148438 234.394531 57.132812 C 234.511719 57.117188 234.613281 57.132812 234.703125 57.183594 C 234.789062 57.230469 234.859375 57.308594 234.90625 57.417969 C 234.957031 57.523438 234.980469 57.652344 234.980469 57.800781 C 234.980469 57.949219 234.957031 58.105469 234.910156 58.273438 C 234.863281 58.441406 234.792969 58.605469 234.703125 58.765625 Z M 234.703125 58.765625"/></g></g></g><g clip-path="url(#H)"><path fill="#D9D9D9" d="M 211.167969 14.660156 L 175.953125 28.515625 L 140.734375 14.660156 C 140.734375 14.660156 133.6875 16.957031 133.6875 24.636719 L 170.230469 84.578125 C 176.835938 87.117188 181.429688 84.429688 181.429688 84.429688 L 218.214844 24.636719 C 218.214844 16.957031 211.167969 14.660156 211.167969 14.660156 Z M 211.167969 14.660156"/></g><g clip-path="url(#I)"><path fill="#006EFF" d="M 168.878906 33.808594 L 138.320312 21.929688 C 138.320312 21.929688 133.6875 19.59375 133.6875 24.71875 C 133.6875 36.367188 133.6875 58.605469 133.6875 62.214844 C 133.6875 67.140625 138.375 68.976562 138.375 68.976562 L 168.851562 84.085938 C 168.851562 84.085938 173.601562 86.652344 173.601562 80.1875 C 173.601562 75.382812 173.601562 47.839844 173.601562 41.125 C 173.601562 35.214844 168.878906 33.808594 168.878906 33.808594 Z M 168.878906 33.808594"/></g><g clip-path="url(#J)"><path fill="#ED008C" d="M 183.023438 33.636719 L 213.585938 21.753906 C 213.585938 21.753906 218.214844 19.417969 218.214844 24.542969 C 218.214844 36.191406 218.214844 58.429688 218.214844 62.039062 C 218.214844 66.964844 213.53125 68.800781 213.53125 68.800781 L 183.054688 83.90625 C 183.054688 83.90625 178.304688 86.476562 178.304688 80.011719 C 178.304688 75.207031 178.304688 47.664062 178.304688 40.949219 C 178.300781 35.039062 183.023438 33.636719 183.023438 33.636719 Z M 183.023438 33.636719"/></g><path fill="#8C52FF" d="M 211.097656 14.628906 C 201.265625 10.390625 184.144531 3.363281 180.617188 2.015625 C 178.933594 1.371094 177.347656 1.179688 175.953125 1.1875 L 175.953125 1.183594 C 174.554688 1.175781 172.96875 1.367188 171.285156 2.011719 C 167.757812 3.363281 150.636719 10.386719 140.804688 14.628906 C 136.378906 16.539062 140.875 17.894531 140.875 17.894531 L 171.21875 29.6875 C 171.21875 29.6875 173.078125 30.617188 175.953125 30.589844 L 175.953125 30.59375 C 178.824219 30.621094 180.683594 29.691406 180.683594 29.691406 L 211.027344 17.894531 C 211.023438 17.894531 215.523438 16.542969 211.097656 14.628906 Z M 211.097656 14.628906"/><path fill="#FFF" d="M 182.996094 15.265625 C 182.996094 15.496094 182.949219 15.726562 182.859375 15.953125 C 182.769531 16.179688 182.636719 16.398438 182.457031 16.613281 C 182.28125 16.828125 182.066406 17.03125 181.808594 17.222656 C 181.550781 17.414062 181.257812 17.59375 180.933594 17.757812 C 180.605469 17.917969 180.25 18.066406 179.863281 18.195312 C 179.480469 18.320312 179.074219 18.429688 178.648438 18.519531 C 178.21875 18.605469 177.777344 18.675781 177.324219 18.71875 C 176.871094 18.765625 176.414062 18.785156 175.953125 18.785156 C 175.488281 18.785156 175.03125 18.765625 174.578125 18.71875 C 174.125 18.675781 173.683594 18.605469 173.253906 18.519531 C 172.828125 18.429688 172.421875 18.320312 172.039062 18.195312 C 171.652344 18.066406 171.296875 17.917969 170.96875 17.757812 C 170.644531 17.59375 170.351562 17.414062 170.09375 17.222656 C 169.835938 17.03125 169.621094 16.828125 169.445312 16.613281 C 169.265625 16.398438 169.132812 16.179688 169.042969 15.953125 C 168.953125 15.726562 168.90625 15.496094 168.90625 15.265625 C 168.90625 15.035156 168.953125 14.808594 169.042969 14.578125 C 169.132812 14.351562 169.265625 14.132812 169.445312 13.917969 C 169.621094 13.707031 169.835938 13.503906 170.09375 13.3125 C 170.351562 13.117188 170.644531 12.941406 170.96875 12.777344 C 171.296875 12.613281 171.652344 12.46875 172.039062 12.339844 C 172.421875 12.210938 172.828125 12.101562 173.253906 12.015625 C 173.683594 11.925781 174.125 11.859375 174.578125 11.8125 C 175.03125 11.769531 175.488281 11.746094 175.953125 11.746094 C 176.414062 11.746094 176.871094 11.769531 177.324219 11.8125 C 177.777344 11.859375 178.21875 11.925781 178.648438 12.015625 C 179.074219 12.101562 179.480469 12.210938 179.863281 12.339844 C 180.25 12.46875 180.605469 12.613281 180.933594 12.777344 C 181.257812 12.941406 181.550781 13.117188 181.808594 13.3125 C 182.066406 13.503906 182.28125 13.707031 182.457031 13.917969 C 182.636719 14.132812 182.769531 14.351562 182.859375 14.578125 C 182.949219 14.808594 182.996094 15.035156 182.996094 15.265625 Z M 182.996094 15.265625"/><path fill="#FFF" d="M 139.558594 55.949219 C 140.984375 53.535156 143.90625 53.324219 146.0625 55.476562 C 148.226562 57.632812 148.820312 61.339844 147.386719 63.761719 C 145.957031 66.179688 143.039062 66.390625 140.878906 64.234375 C 138.714844 62.074219 138.125 58.371094 139.558594 55.949219 Z M 139.558594 55.949219"/><path fill="#FFF" d="M 149.734375 47.152344 C 151.164062 44.734375 154.082031 44.523438 156.238281 46.679688 C 158.402344 48.832031 158.996094 52.539062 157.5625 54.960938 C 156.132812 57.378906 153.214844 57.589844 151.054688 55.4375 C 148.890625 53.277344 148.300781 49.574219 149.734375 47.152344 Z M 149.734375 47.152344"/><path fill="#FFF" d="M 160.296875 38.351562 C 161.726562 35.933594 164.644531 35.722656 166.800781 37.875 C 168.964844 40.03125 169.558594 43.738281 168.125 46.160156 C 166.695312 48.578125 163.78125 48.789062 161.621094 46.632812 C 159.453125 44.476562 158.867188 40.773438 160.296875 38.351562 Z M 160.296875 38.351562"/><path fill="#FFF" d="M 211.269531 52.527344 C 209.84375 50.113281 206.925781 49.902344 204.765625 52.054688 C 202.601562 54.210938 202.007812 57.917969 203.441406 60.339844 C 204.871094 62.757812 207.789062 62.96875 209.949219 60.8125 C 212.113281 58.652344 212.703125 54.949219 211.269531 52.527344 Z M 211.269531 52.527344"/><path fill="#FFF" d="M 198.550781 41.1875 C 197.125 38.773438 194.207031 38.5625 192.046875 40.714844 C 189.882812 42.871094 189.289062 46.578125 190.722656 49 C 192.152344 51.417969 195.070312 51.628906 197.230469 49.472656 C 199.394531 47.316406 199.984375 43.609375 198.550781 41.1875 Z M 198.550781 41.1875"/><g fill="#200554"><g><g><path d="M 25.90625 -7.21875 C 25.90625 -6.039062 25.734375 -4.972656 25.390625 -4.015625 C 25.046875 -3.066406 24.4375 -2.253906 23.5625 -1.578125 C 22.6875 -0.910156 21.476562 -0.382812 19.9375 0 C 18.394531 0.382812 16.441406 0.578125 14.078125 0.578125 C 11.710938 0.578125 9.753906 0.382812 8.203125 0 C 6.648438 -0.382812 5.4375 -0.910156 4.5625 -1.578125 C 3.6875 -2.253906 3.078125 -3.066406 2.734375 -4.015625 C 2.390625 -4.972656 2.21875 -6.039062 2.21875 -7.21875 L 2.21875 -20.21875 C 2.21875 -21.394531 2.390625 -22.457031 2.734375 -23.40625 C 3.078125 -24.363281 3.6875 -25.1875 4.5625 -25.875 C 5.4375 -26.5625 6.648438 -27.09375 8.203125 -27.46875 C 9.753906 -27.851562 11.710938 -28.046875 14.078125 -28.046875 C 16.441406 -28.046875 18.394531 -27.851562 19.9375 -27.46875 C 21.476562 -27.09375 22.6875 -26.5625 23.5625 -25.875 C 24.4375 -25.1875 25.046875 -24.363281 25.390625 -23.40625 C 25.734375 -22.457031 25.90625 -21.394531 25.90625 -20.21875 Z M 10.875 -8.578125 C 10.875 -8.078125 11.0625 -7.65625 11.4375 -7.3125 C 11.820312 -6.96875 12.703125 -6.796875 14.078125 -6.796875 C 15.453125 -6.796875 16.328125 -6.96875 16.703125 -7.3125 C 17.085938 -7.65625 17.28125 -8.078125 17.28125 -8.578125 L 17.28125 -18.84375 C 17.28125 -19.332031 17.085938 -19.75 16.703125 -20.09375 C 16.328125 -20.4375 15.453125 -20.609375 14.078125 -20.609375 C 12.703125 -20.609375 11.820312 -20.4375 11.4375 -20.09375 C 11.0625 -19.75 10.875 -19.332031 10.875 -18.84375 Z M 10.875 -8.578125" transform="translate(41.066 131.573)"/></g></g></g><g fill="#200554"><g><g><path d="M 16.859375 0 L 4 0 C 3.519531 0 3.171875 -0.109375 2.953125 -0.328125 C 2.734375 -0.546875 2.625 -0.894531 2.625 -1.375 L 2.625 -26.09375 C 2.625 -26.582031 2.734375 -26.929688 2.953125 -27.140625 C 3.171875 -27.359375 3.519531 -27.46875 4 -27.46875 L 16.859375 -27.46875 C 20.046875 -27.46875 22.40625 -26.832031 23.9375 -25.5625 C 25.476562 -24.289062 26.25 -22.332031 26.25 -19.6875 L 26.25 -7.78125 C 26.25 -5.132812 25.476562 -3.175781 23.9375 -1.90625 C 22.40625 -0.632812 20.046875 0 16.859375 0 Z M 11.296875 -20.1875 L 11.296875 -7.21875 L 15.828125 -7.21875 C 16.441406 -7.21875 16.894531 -7.367188 17.1875 -7.671875 C 17.476562 -7.972656 17.625 -8.441406 17.625 -9.078125 L 17.625 -18.359375 C 17.625 -18.992188 17.476562 -19.457031 17.1875 -19.75 C 16.894531 -20.039062 16.441406 -20.1875 15.828125 -20.1875 Z M 11.296875 -20.1875" transform="translate(69.182 131.573)"/></g></g></g><g fill="#200554"><g><g><path d="M 16.859375 0 L 4 0 C 3.519531 0 3.171875 -0.109375 2.953125 -0.328125 C 2.734375 -0.546875 2.625 -0.894531 2.625 -1.375 L 2.625 -26.09375 C 2.625 -26.582031 2.734375 -26.929688 2.953125 -27.140625 C 3.171875 -27.359375 3.519531 -27.46875 4 -27.46875 L 16.859375 -27.46875 C 20.046875 -27.46875 22.40625 -26.832031 23.9375 -25.5625 C 25.476562 -24.289062 26.25 -22.332031 26.25 -19.6875 L 26.25 -7.78125 C 26.25 -5.132812 25.476562 -3.175781 23.9375 -1.90625 C 22.40625 -0.632812 20.046875 0 16.859375 0 Z M 11.296875 -20.1875 L 11.296875 -7.21875 L 15.828125 -7.21875 C 16.441406 -7.21875 16.894531 -7.367188 17.1875 -7.671875 C 17.476562 -7.972656 17.625 -8.441406 17.625 -9.078125 L 17.625 -18.359375 C 17.625 -18.992188 17.476562 -19.457031 17.1875 -19.75 C 16.894531 -20.039062 16.441406 -20.1875 15.828125 -20.1875 Z M 11.296875 -20.1875" transform="translate(97.64 131.573)"/></g></g></g><g fill="#200554"><g><g><path d="M 15.375 0 L 3.3125 0 C 2.832031 0 2.484375 -0.109375 2.265625 -0.328125 C 2.054688 -0.546875 1.953125 -0.894531 1.953125 -1.375 L 1.953125 -5.84375 C 1.953125 -6.320312 2.054688 -6.671875 2.265625 -6.890625 C 2.484375 -7.109375 2.832031 -7.21875 3.3125 -7.21875 L 13.578125 -7.21875 C 13.910156 -7.21875 14.160156 -7.320312 14.328125 -7.53125 C 14.492188 -7.75 14.578125 -8.007812 14.578125 -8.3125 C 14.578125 -8.75 14.492188 -9.066406 14.328125 -9.265625 C 14.160156 -9.472656 13.910156 -9.585938 13.578125 -9.609375 L 7.859375 -10.421875 C 6.078125 -10.671875 4.644531 -11.253906 3.5625 -12.171875 C 2.488281 -13.085938 1.953125 -14.613281 1.953125 -16.75 L 1.953125 -20.75 C 1.953125 -22.914062 2.648438 -24.578125 4.046875 -25.734375 C 5.441406 -26.890625 7.375 -27.46875 9.84375 -27.46875 L 20.53125 -27.46875 C 21.007812 -27.46875 21.359375 -27.359375 21.578125 -27.140625 C 21.796875 -26.929688 21.90625 -26.582031 21.90625 -26.09375 L 21.90625 -21.5625 C 21.90625 -21.070312 21.796875 -20.71875 21.578125 -20.5 C 21.359375 -20.289062 21.007812 -20.1875 20.53125 -20.1875 L 11.640625 -20.1875 C 11.304688 -20.1875 11.050781 -20.078125 10.875 -19.859375 C 10.695312 -19.640625 10.609375 -19.367188 10.609375 -19.046875 C 10.609375 -18.710938 10.695312 -18.429688 10.875 -18.203125 C 11.050781 -17.972656 11.304688 -17.84375 11.640625 -17.8125 L 17.328125 -17.0625 C 19.109375 -16.800781 20.546875 -16.210938 21.640625 -15.296875 C 22.734375 -14.378906 23.28125 -12.851562 23.28125 -10.71875 L 23.28125 -6.71875 C 23.28125 -4.550781 22.570312 -2.890625 21.15625 -1.734375 C 19.75 -0.578125 17.820312 0 15.375 0 Z M 15.375 0" transform="translate(126.099 131.573)"/></g></g></g><g fill="#200554"><g><g><path d="M 11.296875 -7.140625 L 16.71875 -7.140625 C 17.269531 -7.140625 17.644531 -7.265625 17.84375 -7.515625 C 18.050781 -7.765625 18.15625 -8.144531 18.15625 -8.65625 L 18.15625 -13.921875 C 18.15625 -14.410156 18.265625 -14.757812 18.484375 -14.96875 C 18.703125 -15.1875 19.050781 -15.296875 19.53125 -15.296875 L 26.9375 -15.296875 C 27.414062 -15.296875 27.765625 -15.1875 27.984375 -14.96875 C 28.203125 -14.757812 28.3125 -14.410156 28.3125 -13.921875 L 28.3125 -9.8125 C 28.3125 -9.320312 28.203125 -8.96875 27.984375 -8.75 C 27.765625 -8.539062 27.414062 -8.4375 26.9375 -8.4375 L 26.0625 -8.4375 L 26.0625 -6.71875 C 26.0625 -4.675781 25.472656 -3.046875 24.296875 -1.828125 C 23.128906 -0.609375 21.441406 0 19.234375 0 L 8.625 0 C 6.28125 0 4.488281 -0.609375 3.25 -1.828125 C 2.019531 -3.046875 1.40625 -4.675781 1.40625 -6.71875 L 1.40625 -9.765625 C 1.40625 -11.546875 1.863281 -12.941406 2.78125 -13.953125 C 3.695312 -14.972656 4.84375 -15.550781 6.21875 -15.6875 C 5.375 -16.039062 4.785156 -16.570312 4.453125 -17.28125 C 4.128906 -18 3.96875 -18.835938 3.96875 -19.796875 L 3.96875 -21.640625 C 3.96875 -23.316406 4.546875 -24.707031 5.703125 -25.8125 C 6.859375 -26.914062 8.722656 -27.46875 11.296875 -27.46875 L 19.34375 -27.46875 C 19.820312 -27.46875 20.171875 -27.359375 20.390625 -27.140625 C 20.609375 -26.929688 20.71875 -26.582031 20.71875 -26.09375 L 20.71875 -21.703125 C 20.71875 -21.222656 20.609375 -20.875 20.390625 -20.65625 C 20.171875 -20.445312 19.820312 -20.34375 19.34375 -20.34375 L 13.78125 -20.34375 C 13.164062 -20.34375 12.769531 -20.226562 12.59375 -20 C 12.414062 -19.769531 12.328125 -19.5 12.328125 -19.1875 L 12.328125 -18.390625 C 12.328125 -18.085938 12.414062 -17.820312 12.59375 -17.59375 C 12.769531 -17.363281 13.164062 -17.25 13.78125 -17.25 L 14.34375 -17.25 C 14.832031 -17.25 15.179688 -17.140625 15.390625 -16.921875 C 15.609375 -16.703125 15.71875 -16.351562 15.71875 -15.875 L 15.71875 -11.9375 C 15.71875 -11.457031 15.609375 -11.109375 15.390625 -10.890625 C 15.179688 -10.671875 14.832031 -10.5625 14.34375 -10.5625 L 11.296875 -10.5625 C 10.679688 -10.5625 10.285156 -10.453125 10.109375 -10.234375 C 9.929688 -10.023438 9.84375 -9.769531 9.84375 -9.46875 L 9.84375 -8.28125 C 9.84375 -7.976562 9.929688 -7.710938 10.109375 -7.484375 C 10.285156 -7.253906 10.679688 -7.140625 11.296875 -7.140625 Z M 11.296875 -7.140625" transform="translate(159.479 131.573)"/></g></g></g><g fill="#200554"><g><g><path d="M 21.703125 0 L 4 0 C 3.519531 0 3.171875 -0.109375 2.953125 -0.328125 C 2.734375 -0.546875 2.625 -0.894531 2.625 -1.375 L 2.625 -26.09375 C 2.625 -26.582031 2.734375 -26.929688 2.953125 -27.140625 C 3.171875 -27.359375 3.519531 -27.46875 4 -27.46875 L 21.703125 -27.46875 C 22.191406 -27.46875 22.539062 -27.359375 22.75 -27.140625 C 22.96875 -26.929688 23.078125 -26.582031 23.078125 -26.09375 L 23.078125 -21.640625 C 23.078125 -21.148438 22.96875 -20.796875 22.75 -20.578125 C 22.539062 -20.367188 22.191406 -20.265625 21.703125 -20.265625 L 11.1875 -20.265625 L 11.1875 -17.328125 L 18.625 -17.328125 C 19.101562 -17.328125 19.453125 -17.21875 19.671875 -17 C 19.890625 -16.78125 20 -16.429688 20 -15.953125 L 20 -11.859375 C 20 -11.378906 19.890625 -11.03125 19.671875 -10.8125 C 19.453125 -10.601562 19.101562 -10.5 18.625 -10.5 L 11.1875 -10.5 L 11.1875 -7.21875 L 21.703125 -7.21875 C 22.191406 -7.21875 22.539062 -7.109375 22.75 -6.890625 C 22.96875 -6.671875 23.078125 -6.320312 23.078125 -5.84375 L 23.078125 -1.375 C 23.078125 -0.894531 22.96875 -0.546875 22.75 -0.328125 C 22.539062 -0.109375 22.191406 0 21.703125 0 Z M 21.703125 0" transform="translate(197.284 131.573)"/></g></g></g><g fill="#200554"><g><g><path d="M 18.890625 0 L 8.96875 0 C 8.476562 0 8.070312 -0.0859375 7.75 -0.265625 C 7.4375 -0.441406 7.191406 -0.773438 7.015625 -1.265625 L 3.28125 -10.609375 C 3.050781 -11.171875 2.859375 -11.660156 2.703125 -12.078125 C 2.554688 -12.492188 2.429688 -12.890625 2.328125 -13.265625 C 2.222656 -13.648438 2.148438 -14.050781 2.109375 -14.46875 C 2.078125 -14.894531 2.0625 -15.414062 2.0625 -16.03125 L 2.0625 -26.09375 C 2.0625 -26.582031 2.164062 -26.929688 2.375 -27.140625 C 2.59375 -27.359375 2.945312 -27.46875 3.4375 -27.46875 L 9.5 -27.46875 C 9.976562 -27.46875 10.34375 -27.359375 10.59375 -27.140625 C 10.851562 -26.929688 10.984375 -26.582031 10.984375 -26.09375 L 10.984375 -15.5625 C 10.984375 -15.3125 11.007812 -15.054688 11.0625 -14.796875 C 11.113281 -14.546875 11.191406 -14.28125 11.296875 -14 L 13.09375 -8.65625 C 13.164062 -8.40625 13.25 -8.234375 13.34375 -8.140625 C 13.445312 -8.054688 13.601562 -8.015625 13.8125 -8.015625 L 14.234375 -8.015625 C 14.429688 -8.015625 14.582031 -8.054688 14.6875 -8.140625 C 14.789062 -8.234375 14.878906 -8.40625 14.953125 -8.65625 L 16.75 -14.046875 C 16.851562 -14.328125 16.929688 -14.59375 16.984375 -14.84375 C 17.035156 -15.09375 17.0625 -15.347656 17.0625 -15.609375 L 17.0625 -26.09375 C 17.0625 -26.582031 17.164062 -26.929688 17.375 -27.140625 C 17.59375 -27.359375 17.941406 -27.46875 18.421875 -27.46875 L 24.421875 -27.46875 C 24.898438 -27.46875 25.25 -27.359375 25.46875 -27.140625 C 25.6875 -26.929688 25.796875 -26.582031 25.796875 -26.09375 L 25.796875 -16.03125 C 25.796875 -15.414062 25.773438 -14.894531 25.734375 -14.46875 C 25.691406 -14.050781 25.617188 -13.648438 25.515625 -13.265625 C 25.421875 -12.890625 25.296875 -12.492188 25.140625 -12.078125 C 24.992188 -11.660156 24.804688 -11.171875 24.578125 -10.609375 L 20.828125 -1.265625 C 20.648438 -0.773438 20.398438 -0.441406 20.078125 -0.265625 C 19.765625 -0.0859375 19.367188 0 18.890625 0 Z M 18.890625 0" transform="translate(222.233 131.573)"/></g></g></g><g fill="#200554"><g><g><path d="M 21.703125 0 L 4 0 C 3.519531 0 3.171875 -0.109375 2.953125 -0.328125 C 2.734375 -0.546875 2.625 -0.894531 2.625 -1.375 L 2.625 -26.09375 C 2.625 -26.582031 2.734375 -26.929688 2.953125 -27.140625 C 3.171875 -27.359375 3.519531 -27.46875 4 -27.46875 L 21.703125 -27.46875 C 22.191406 -27.46875 22.539062 -27.359375 22.75 -27.140625 C 22.96875 -26.929688 23.078125 -26.582031 23.078125 -26.09375 L 23.078125 -21.640625 C 23.078125 -21.148438 22.96875 -20.796875 22.75 -20.578125 C 22.539062 -20.367188 22.191406 -20.265625 21.703125 -20.265625 L 11.1875 -20.265625 L 11.1875 -17.328125 L 18.625 -17.328125 C 19.101562 -17.328125 19.453125 -17.21875 19.671875 -17 C 19.890625 -16.78125 20 -16.429688 20 -15.953125 L 20 -11.859375 C 20 -11.378906 19.890625 -11.03125 19.671875 -10.8125 C 19.453125 -10.601562 19.101562 -10.5 18.625 -10.5 L 11.1875 -10.5 L 11.1875 -7.21875 L 21.703125 -7.21875 C 22.191406 -7.21875 22.539062 -7.109375 22.75 -6.890625 C 22.96875 -6.671875 23.078125 -6.320312 23.078125 -5.84375 L 23.078125 -1.375 C 23.078125 -0.894531 22.96875 -0.546875 22.75 -0.328125 C 22.539062 -0.109375 22.191406 0 21.703125 0 Z M 21.703125 0" transform="translate(250.081 131.573)"/></g></g></g><g fill="#200554"><g><g><path d="M 9.734375 0 L 4 0 C 3.519531 0 3.171875 -0.109375 2.953125 -0.328125 C 2.734375 -0.546875 2.625 -0.894531 2.625 -1.375 L 2.625 -26.09375 C 2.625 -26.582031 2.734375 -26.929688 2.953125 -27.140625 C 3.171875 -27.359375 3.519531 -27.46875 4 -27.46875 L 7.96875 -27.46875 C 8.457031 -27.46875 8.875 -27.390625 9.21875 -27.234375 C 9.5625 -27.085938 9.894531 -26.820312 10.21875 -26.4375 L 17.625 -17.96875 L 17.625 -26.09375 C 17.625 -26.582031 17.734375 -26.929688 17.953125 -27.140625 C 18.171875 -27.359375 18.519531 -27.46875 19 -27.46875 L 24.71875 -27.46875 C 25.207031 -27.46875 25.554688 -27.359375 25.765625 -27.140625 C 25.984375 -26.929688 26.09375 -26.582031 26.09375 -26.09375 L 26.09375 -1.375 C 26.09375 -0.894531 25.984375 -0.546875 25.765625 -0.328125 C 25.554688 -0.109375 25.207031 0 24.71875 0 L 19 0 C 18.519531 0 18.171875 -0.109375 17.953125 -0.328125 C 17.734375 -0.546875 17.625 -0.894531 17.625 -1.375 L 17.625 -6.0625 L 11.109375 -13.96875 L 11.109375 -1.375 C 11.109375 -0.894531 11 -0.546875 10.78125 -0.328125 C 10.5625 -0.109375 10.210938 0 9.734375 0 Z M 9.734375 0" transform="translate(275.03 131.573)"/></g></g></g><g fill="#200554"><g><g><path d="M 15.375 0 L 3.3125 0 C 2.832031 0 2.484375 -0.109375 2.265625 -0.328125 C 2.054688 -0.546875 1.953125 -0.894531 1.953125 -1.375 L 1.953125 -5.84375 C 1.953125 -6.320312 2.054688 -6.671875 2.265625 -6.890625 C 2.484375 -7.109375 2.832031 -7.21875 3.3125 -7.21875 L 13.578125 -7.21875 C 13.910156 -7.21875 14.160156 -7.320312 14.328125 -7.53125 C 14.492188 -7.75 14.578125 -8.007812 14.578125 -8.3125 C 14.578125 -8.75 14.492188 -9.066406 14.328125 -9.265625 C 14.160156 -9.472656 13.910156 -9.585938 13.578125 -9.609375 L 7.859375 -10.421875 C 6.078125 -10.671875 4.644531 -11.253906 3.5625 -12.171875 C 2.488281 -13.085938 1.953125 -14.613281 1.953125 -16.75 L 1.953125 -20.75 C 1.953125 -22.914062 2.648438 -24.578125 4.046875 -25.734375 C 5.441406 -26.890625 7.375 -27.46875 9.84375 -27.46875 L 20.53125 -27.46875 C 21.007812 -27.46875 21.359375 -27.359375 21.578125 -27.140625 C 21.796875 -26.929688 21.90625 -26.582031 21.90625 -26.09375 L 21.90625 -21.5625 C 21.90625 -21.070312 21.796875 -20.71875 21.578125 -20.5 C 21.359375 -20.289062 21.007812 -20.1875 20.53125 -20.1875 L 11.640625 -20.1875 C 11.304688 -20.1875 11.050781 -20.078125 10.875 -19.859375 C 10.695312 -19.640625 10.609375 -19.367188 10.609375 -19.046875 C 10.609375 -18.710938 10.695312 -18.429688 10.875 -18.203125 C 11.050781 -17.972656 11.304688 -17.84375 11.640625 -17.8125 L 17.328125 -17.0625 C 19.109375 -16.800781 20.546875 -16.210938 21.640625 -15.296875 C 22.734375 -14.378906 23.28125 -12.851562 23.28125 -10.71875 L 23.28125 -6.71875 C 23.28125 -4.550781 22.570312 -2.890625 21.15625 -1.734375 C 19.75 -0.578125 17.820312 0 15.375 0 Z M 15.375 0" transform="translate(303.756 131.573)"/></g></g></g><g fill="#006EFF"><g><g><path d="M 0.664062 0 L 5.480469 0 C 8.734375 0 10.550781 -1.589844 10.550781 -4.453125 C 10.550781 -7.320312 8.734375 -8.910156 5.480469 -8.910156 L 0.664062 -8.910156 Z M 2.929688 -1.738281 L 2.929688 -7.171875 L 5.320312 -7.171875 C 7.195312 -7.171875 8.246094 -6.207031 8.246094 -4.453125 C 8.246094 -2.714844 7.195312 -1.738281 5.320312 -1.738281 Z M 2.929688 -1.738281" transform="translate(194.624 154.492)"/></g></g></g><g fill="#006EFF"><g><g><path d="M 0.664062 0 L 2.976562 0 L 2.976562 -8.910156 L 0.664062 -8.910156 Z M 0.664062 0" transform="translate(207.795 154.492)"/></g></g></g><g fill="#006EFF"><g><g><path d="M 5.066406 0.300781 C 7.734375 0.300781 9.535156 -0.863281 9.535156 -2.691406 C 9.535156 -4.179688 8.460938 -4.992188 6.03125 -5.332031 L 4.46875 -5.570312 C 3.355469 -5.730469 2.878906 -6.019531 2.890625 -6.519531 C 2.890625 -7.15625 3.679688 -7.609375 4.816406 -7.609375 C 5.980469 -7.609375 7.03125 -7.082031 7.507812 -6.269531 L 8.898438 -7.207031 C 8.308594 -8.421875 6.707031 -9.210938 4.832031 -9.210938 C 2.351562 -9.210938 0.613281 -8.121094 0.613281 -6.332031 C 0.613281 -4.894531 1.601562 -4.117188 3.867188 -3.792969 L 5.429688 -3.542969 C 6.71875 -3.339844 7.269531 -3.015625 7.269531 -2.476562 C 7.269531 -1.800781 6.457031 -1.339844 5.179688 -1.339844 C 3.640625 -1.339844 2.238281 -2.050781 1.753906 -3.117188 L 0.261719 -2.191406 C 0.875 -0.636719 2.816406 0.300781 5.066406 0.300781 Z M 5.066406 0.300781" transform="translate(213.662 154.492)"/></g></g></g><g fill="#006EFF"><g><g><path d="M 0.664062 0 L 2.976562 0 L 2.976562 -2.953125 L 6.167969 -2.953125 C 8.410156 -2.953125 9.773438 -4.078125 9.785156 -5.917969 C 9.785156 -7.769531 8.433594 -8.910156 6.195312 -8.910156 L 0.664062 -8.910156 Z M 2.976562 -4.503906 L 2.976562 -7.359375 L 5.632812 -7.359375 C 6.769531 -7.359375 7.445312 -6.820312 7.445312 -5.933594 C 7.445312 -5.042969 6.769531 -4.503906 5.632812 -4.503906 Z M 2.976562 -4.503906" transform="translate(225.633 154.492)"/></g></g></g><g fill="#006EFF"><g><g><path d="M 0.664062 0 L 7.621094 0 L 7.621094 -1.863281 L 2.992188 -1.863281 L 2.992188 -8.910156 L 0.664062 -8.910156 Z M 0.664062 0" transform="translate(237.866 154.492)"/></g></g></g><g fill="#006EFF"><g><g><path d="M 0.0507812 0 L 2.464844 0 L 3.179688 -1.753906 L 7.394531 -1.753906 L 8.109375 0 L 10.535156 0 L 6.707031 -8.910156 L 3.929688 -8.910156 Z M 3.652344 -3.265625 L 5.292969 -7.246094 L 5.320312 -7.246094 L 6.921875 -3.265625 Z M 3.652344 -3.265625" transform="translate(247.885 154.492)"/></g></g></g><g fill="#006EFF"><g><g><path d="M 3.777344 0 L 6.105469 0 L 6.105469 -3.140625 L 9.796875 -8.910156 L 7.285156 -8.910156 L 4.957031 -4.941406 L 4.941406 -4.941406 L 2.515625 -8.910156 L 0.0234375 -8.910156 L 3.777344 -3.140625 Z M 3.777344 0" transform="translate(260.694 154.492)"/></g></g></g><g fill="#ED008C"><g><g><path d="M 0.664062 0 L 2.867188 0 L 2.867188 -6.445312 L 2.878906 -6.445312 L 7.496094 0 L 10.273438 0 L 10.273438 -8.910156 L 8.058594 -8.910156 L 8.058594 -2.492188 L 8.046875 -2.492188 L 3.441406 -8.910156 L 0.664062 -8.910156 Z M 0.664062 0" transform="translate(82.378 154.492)"/></g></g></g><g fill="#ED008C"><g><g><path d="M 5.28125 0.289062 C 8.210938 0.289062 10 -1.203125 10 -3.753906 L 10 -8.910156 L 7.671875 -8.910156 L 7.671875 -3.84375 C 7.671875 -2.390625 6.746094 -1.578125 5.28125 -1.578125 C 3.804688 -1.578125 2.878906 -2.414062 2.878906 -3.84375 L 2.878906 -8.910156 L 0.550781 -8.910156 L 0.550781 -3.753906 C 0.550781 -1.203125 2.339844 0.289062 5.28125 0.289062 Z M 5.28125 0.289062" transform="translate(95.537 154.492)"/></g></g></g><g fill="#ED008C"><g><g><path d="M 0.664062 0 L 2.828125 0 L 2.828125 -6.28125 L 2.851562 -6.28125 L 5.820312 0 L 7.820312 0 L 10.75 -6.292969 L 10.773438 -6.292969 L 10.773438 0 L 12.953125 0 L 12.953125 -8.910156 L 9.886719 -8.910156 L 6.820312 -2.316406 L 6.796875 -2.316406 L 3.714844 -8.910156 L 0.664062 -8.910156 Z M 0.664062 0" transform="translate(108.307 154.492)"/></g></g></g><g fill="#ED008C"><g><g><path d="M 0.664062 0 L 8.484375 0 L 8.484375 -1.675781 L 2.914062 -1.675781 L 2.914062 -3.816406 L 7.859375 -3.816406 L 7.859375 -5.304688 L 2.914062 -5.304688 L 2.914062 -7.234375 L 8.359375 -7.234375 L 8.359375 -8.910156 L 0.664062 -8.910156 Z M 0.664062 0" transform="translate(124.142 154.492)"/></g></g></g><g fill="#ED008C"><g><g><path d="M 8.761719 0.238281 C 9.484375 0.238281 10.222656 -0.0625 10.660156 -0.5 L 10.175781 -1.539062 C 10.011719 -1.328125 9.75 -1.175781 9.511719 -1.175781 C 9.199219 -1.175781 9.023438 -1.375 8.898438 -1.652344 L 8.445312 -2.714844 C 8.257812 -3.167969 7.996094 -3.503906 7.582031 -3.679688 L 7.582031 -3.691406 C 9.074219 -3.980469 9.949219 -4.90625 9.949219 -6.167969 C 9.949219 -7.871094 8.621094 -8.910156 6.457031 -8.910156 L 0.664062 -8.910156 L 0.664062 0 L 2.992188 0 L 2.992188 -3.292969 L 5.042969 -3.292969 C 5.605469 -3.292969 6.058594 -2.929688 6.292969 -2.363281 L 6.796875 -1.140625 C 7.132812 -0.375 7.734375 0.238281 8.761719 0.238281 Z M 2.992188 -4.78125 L 2.992188 -7.332031 L 5.96875 -7.332031 C 6.984375 -7.332031 7.621094 -6.832031 7.621094 -6.042969 C 7.621094 -5.269531 6.984375 -4.78125 5.96875 -4.78125 Z M 2.992188 -4.78125" transform="translate(135.125 154.492)"/></g></g></g><g fill="#ED008C"><g><g><path d="M 0.664062 0 L 2.976562 0 L 2.976562 -8.910156 L 0.664062 -8.910156 Z M 0.664062 0" transform="translate(148.046 154.492)"/></g></g></g><g fill="#ED008C"><g><g><path d="M 5.980469 0.289062 C 8.808594 0.289062 10.863281 -1.152344 11.261719 -3.402344 L 9.097656 -3.765625 C 8.808594 -2.414062 7.621094 -1.550781 6.03125 -1.550781 C 4.015625 -1.550781 2.742188 -2.679688 2.742188 -4.453125 C 2.742188 -6.230469 3.890625 -7.359375 5.707031 -7.359375 C 7.046875 -7.359375 8.046875 -6.632812 8.335938 -5.46875 L 10.460938 -5.980469 C 9.984375 -7.945312 8.121094 -9.199219 5.667969 -9.199219 C 2.441406 -9.199219 0.414062 -7.347656 0.414062 -4.453125 C 0.414062 -1.527344 2.578125 0.289062 5.980469 0.289062 Z M 5.980469 0.289062" transform="translate(153.913 154.492)"/></g></g></g><g fill="#ED008C"><g><g><path d="M 0.0507812 0 L 2.464844 0 L 3.179688 -1.753906 L 7.394531 -1.753906 L 8.109375 0 L 10.535156 0 L 6.707031 -8.910156 L 3.929688 -8.910156 Z M 3.652344 -3.265625 L 5.292969 -7.246094 L 5.320312 -7.246094 L 6.921875 -3.265625 Z M 3.652344 -3.265625" transform="translate(167.634 154.492)"/></g></g></g><g fill="#ED008C"><g><g><path d="M 0.664062 0 L 7.621094 0 L 7.621094 -1.863281 L 2.992188 -1.863281 L 2.992188 -8.910156 L 0.664062 -8.910156 Z M 0.664062 0" transform="translate(180.443 154.492)"/></g></g></g></svg>